<?xml version="1.0" encoding="UTF-8"?>
<svg version="1.1" xmlns="http://www.w3.org/2000/svg" width="270" height="146">
<path d="M0 0 C2.89019954 1.59873164 5.13729507 3.25738095 7.375 5.6875 C8.035 3.7075 8.695 1.7275 9.375 -0.3125 C12.015 -0.3125 14.655 -0.3125 17.375 -0.3125 C17.45133893 7.49790149 17.50372116 15.30820601 17.53979492 23.11889648 C17.5531397 25.77369776 17.57528011 28.42800853 17.60131836 31.08276367 C17.63788673 34.90810252 17.65476928 38.73311142 17.66796875 42.55859375 C17.68345261 43.73707382 17.69893646 44.91555389 17.71488953 46.12974548 C17.71701932 56.66138725 15.95788103 63.99425124 8.6328125 71.73828125 C0.2950176 78.93648134 -10.08583982 79.45838946 -20.625 78.6875 C-28.80304891 77.06556915 -35.75741736 73.68664279 -41.625 67.6875 C-42.285 66.3675 -42.945 65.0475 -43.625 63.6875 C-41.315 61.7075 -39.005 59.7275 -36.625 57.6875 C-36.17511719 58.21859375 -35.72523437 58.7496875 -35.26171875 59.296875 C-29.1656355 65.99157163 -22.99244195 69.03970528 -14 70.125 C-6.66922468 69.17471431 -0.72637471 67.15325862 4.375 61.6875 C7.11802228 56.75213794 7.72306807 52.25658913 7.375 46.6875 C6.86710937 47.09742188 6.35921875 47.50734375 5.8359375 47.9296875 C-2.03437163 54.09034146 -8.61432086 55.74261014 -18.625 54.6875 C-24.9557511 52.84340734 -30.44466531 49.61510775 -34.42578125 44.26953125 C-39.52770126 34.92260285 -40.54413058 25.16093972 -37.88671875 14.8125 C-36.97228717 12.58474899 -35.9579177 10.68906166 -34.625 8.6875 C-34.26277344 8.11773437 -33.90054688 7.54796875 -33.52734375 6.9609375 C-26.16906982 -3.16604289 -10.76692751 -5.28039302 0 0 Z M-26.625 13.6875 C-30.75059473 19.37797549 -30.34097951 25.95564667 -29.625 32.6875 C-28.31022989 37.8638905 -26.0162541 40.72964973 -21.5625 43.625 C-16.68841714 46.3847974 -12.22177711 47.39709138 -6.625 46.6875 C0.21629607 44.48671542 4.10165847 40.5846569 7.6875 34.4375 C9.25465649 28.16887403 9.10173897 21.5648592 6.55859375 15.578125 C3.9877947 11.4716341 0.00796918 7.57025905 -4.640625 6.01171875 C-13.68598395 4.5338353 -20.60258778 6.49406319 -26.625 13.6875 Z " fill="#383BBF" transform="translate(130.625,34.3125)"/>
<path d="M0 0 C2.94203624 2.14689131 3.85392231 3.37584989 4.6875 6.9375 C6.45074941 11.05174862 8.76529567 12.19037387 12.6796875 14.16015625 C15.80914622 15.29287279 17.86887464 15.04370845 21 14 C24 13 24 13 25.82421875 13.71484375 C30.67463487 16.89761156 30.67463487 16.89761156 31.59375 20.01171875 C31.6875 22.125 31.6875 22.125 31 26 C29.125 28 29.125 28 27 29 C26.34 29 25.68 29 25 29 C25.03300659 31.27145346 25.10240005 33.54240126 25.1875 35.8125 C25.23970703 37.70935547 25.23970703 37.70935547 25.29296875 39.64453125 C25.62803556 43.17451754 25.62803556 43.17451754 28.5078125 44.671875 C29.33023438 45.11015625 30.15265625 45.5484375 31 46 C32.01565534 49.08101034 31.80004269 51.87307258 31 55 C28.3125 57.625 28.3125 57.625 25 59 C22.4386485 58.81704632 20.57297287 58.22545237 18.203125 57.29296875 C13.36602366 56.64973719 8.72454298 60.19606296 5 63 C3.62032476 66.53514293 3.62032476 66.53514293 3 70 C0.06278197 72.61086047 -1.63880511 74.0324094 -5.625 73.9375 C-8.34118997 72.86531975 -10.03061851 72.18820165 -12 70 C-12.25 66.3125 -12.25 66.3125 -12 63 C-12.845625 62.7525 -13.69125 62.505 -14.5625 62.25 C-17.33070377 61.24338045 -19.15306369 60.31402006 -21.5625 58.75 C-24.79399285 56.60213206 -24.79399285 56.60213206 -27.625 57.8125 C-28.800625 58.4003125 -28.800625 58.4003125 -30 59 C-33.62774567 58.64607359 -35.65119623 57.67440189 -39 56 C-39 52.37 -39 48.74 -39 45 C-37.68 44.34 -36.36 43.68 -35 43 C-34.29211565 39.66024628 -34.29211565 39.66024628 -34.25 35.875 C-34.19328125 34.59367187 -34.1365625 33.31234375 -34.078125 31.9921875 C-34.05234375 31.00476562 -34.0265625 30.01734375 -34 29 C-36.475 28.01 -36.475 28.01 -39 27 C-39.35044155 23.59941904 -39.51362894 20.38889198 -39 17 C-36.3125 14.25 -36.3125 14.25 -33 13 C-30.3125 13.6875 -30.3125 13.6875 -28 15 C-24.99435112 16.36506241 -24.99435112 16.36506241 -22.1171875 14.8125 C-18.90622252 13.01745452 -15.89802646 11.26990413 -13 9 C-11.9434891 5.36852515 -11.9434891 5.36852515 -12 2 C-8.14878091 -1.62467679 -4.9406354 -1.34744602 0 0 Z M-5 2 C-5.66 2.66 -6.32 3.32 -7 4 C-5.68 4.33 -4.36 4.66 -3 5 C-2.67 4.34 -2.34 3.68 -2 3 C-2.99 2.67 -3.98 2.34 -5 2 Z M-9 7 C-8.67 7.99 -8.34 8.98 -8 10 C-7.34 10 -6.68 10 -6 10 C-6 9.34 -6 8.68 -6 8 C-6.99 7.67 -7.98 7.34 -9 7 Z M-3 8 C-2.67 8.99 -2.34 9.98 -2 11 C-1.34 9.68 -0.68 8.36 0 7 C-1.2236068 6.9254644 -1.2236068 6.9254644 -3 8 Z M-3 15 C-3 15.66 -3 16.32 -3 17 C-2.34773438 17.23074219 -1.69546875 17.46148437 -1.0234375 17.69921875 C4.56291924 19.7838032 8.66744795 21.89547701 13 26 C15.19198676 24.17449363 15.19198676 24.17449363 15.4921875 21.61328125 C15.2472301 18.74147709 15.2472301 18.74147709 12.4453125 16.98046875 C11.34960938 16.38878906 10.25390625 15.79710937 9.125 15.1875 C8.03445312 14.58292969 6.94390625 13.97835937 5.8203125 13.35546875 C1.5871378 11.32096512 0.44575636 12.01367782 -3 15 Z M-13.8828125 13.2578125 C-15.48769531 14.18207031 -15.48769531 14.18207031 -17.125 15.125 C-18.20007813 15.72570312 -19.27515625 16.32640625 -20.3828125 16.9453125 C-23.20981864 18.76724493 -23.20981864 18.76724493 -23.8671875 21.7421875 C-23.91101563 22.48726562 -23.95484375 23.23234375 -24 24 C-22.02 24.99 -22.02 24.99 -20 26 C-19.54625 25.2575 -19.0925 24.515 -18.625 23.75 C-14.996728 19.94895314 -10.90162771 18.67441099 -6 17 C-6.79117904 15.00016466 -6.79117904 15.00016466 -8 13 C-11.01424288 11.62346067 -11.01424288 11.62346067 -13.8828125 13.2578125 Z M-33 17 C-33 17.99 -33 18.98 -33 20 C-32.01 20 -31.02 20 -30 20 C-30.33 19.01 -30.66 18.02 -31 17 C-31.66 17 -32.32 17 -33 17 Z M22 17 C22 17.99 22 18.98 22 20 C22.99 20 23.98 20 25 20 C24.67 19.01 24.34 18.02 24 17 C23.34 17 22.68 17 22 17 Z M-15.64453125 24.4375 C-19.58533712 28.9802157 -20.35653253 32.92199483 -20.28125 38.71875 C-19.69483612 43.47521811 -16.86016535 46.22375322 -13.4375 49.3125 C-9.2058729 52.24208799 -5.02027652 52.64599146 0 52 C4.12782104 50.61851151 7.03182258 48.44211856 9.4375 44.8125 C11.52661625 40.61625787 11.68671546 36.58926919 11 32 C9.31401595 27.29699187 7.24276991 24.63994572 3 22 C-3.48904903 19.1175559 -10.1609722 19.64427023 -15.64453125 24.4375 Z M-36 22 C-36 22.99 -36 23.98 -36 25 C-35.34 25 -34.68 25 -34 25 C-34.33 24.01 -34.66 23.02 -35 22 C-35.33 22 -35.66 22 -36 22 Z M19 22 C19 22.99 19 23.98 19 25 C19.66 25 20.32 25 21 25 C20.67 24.01 20.34 23.02 20 22 C19.67 22 19.34 22 19 22 Z M-28 22 C-28.99 22.495 -28.99 22.495 -30 23 C-30 23.66 -30 24.32 -30 25 C-29.01 24.67 -28.02 24.34 -27 24 C-27.33 23.34 -27.66 22.68 -28 22 Z M27 22 C26.01 22.495 26.01 22.495 25 23 C25 23.66 25 24.32 25 25 C25.99 24.67 26.98 24.34 28 24 C27.67 23.34 27.34 22.68 27 22 Z M16 27 C13.61607883 28.93970052 13.61607883 28.93970052 13.8046875 32.4765625 C13.81798507 33.85950968 13.84183768 35.24238654 13.875 36.625 C13.88402344 37.33140625 13.89304688 38.0378125 13.90234375 38.765625 C13.92592397 40.51056098 13.96179539 42.25532295 14 44 C15.84725052 44.69159401 15.84725052 44.69159401 18 45 C18.99 44.34 19.98 43.68 21 43 C21.36558117 39.64496524 21.36558117 39.64496524 21.1875 35.875 C21.16042969 34.59367187 21.13335937 33.31234375 21.10546875 31.9921875 C21.07066406 31.00476562 21.03585938 30.01734375 21 29 C18.525 28.01 18.525 28.01 16 27 Z M-26 27 C-28.12730285 27.89681416 -28.12730285 27.89681416 -30 29 C-30.08075665 31.29109597 -30.13907731 33.58299267 -30.1875 35.875 C-30.22230469 37.15117188 -30.25710937 38.42734375 -30.29296875 39.7421875 C-30.19628906 40.81726563 -30.09960938 41.89234375 -30 43 C-27.28450846 45.30671915 -27.28450846 45.30671915 -24.8125 44.625 C-24.214375 44.41875 -23.61625 44.2125 -23 44 C-23.01160156 43.33613281 -23.02320313 42.67226562 -23.03515625 41.98828125 C-23.12478032 33.21792619 -23.12478032 33.21792619 -22 29 C-23.76529595 27.78309467 -23.76529595 27.78309467 -26 27 Z M-33 46 C-33 46.99 -33 47.98 -33 49 C-31.68 48.34 -30.36 47.68 -29 47 C-30.32 46.67 -31.64 46.34 -33 46 Z M22 46 C22 46.99 22 47.98 22 49 C23.32 48.34 24.64 47.68 26 47 C24.68 46.67 23.36 46.34 22 46 Z M-24 48 C-24.4761137 50.33528363 -24.4761137 50.33528363 -24 53 C-21.54092036 55.19152182 -21.54092036 55.19152182 -18.3125 56.875 C-17.25675781 57.49117187 -16.20101562 58.10734375 -15.11328125 58.7421875 C-11.76796306 60.09374642 -10.36844352 60.11239879 -7 59 C-6.67 57.68 -6.34 56.36 -6 55 C-6.59167969 54.84144531 -7.18335938 54.68289062 -7.79296875 54.51953125 C-13.16643974 52.93291094 -16.18827313 51.27375437 -20 47 C-22.0745356 46.8509288 -22.0745356 46.8509288 -24 48 Z M9.32421875 48.14453125 C8.78410156 48.69496094 8.24398437 49.24539062 7.6875 49.8125 C4.24084597 53.02788503 1.58590573 54.06410087 -3 55 C-3 55.99 -3 56.98 -3 58 C-0.27084614 60.27020083 -0.27084614 60.27020083 2.35546875 59.796875 C5.27183677 58.91808759 7.67203593 57.76777786 10.3125 56.25 C11.63701172 55.51523438 11.63701172 55.51523438 12.98828125 54.765625 C15.29251762 53.14458867 15.29251762 53.14458867 15.29296875 50.296875 C15.19628906 49.53890625 15.09960938 48.7809375 15 48 C12.05344919 46.84545463 12.05344919 46.84545463 9.32421875 48.14453125 Z M-36 51 C-35.67 51.99 -35.34 52.98 -35 54 C-35 53.01 -35 52.02 -35 51 C-35.33 51 -35.66 51 -36 51 Z M-29 51 C-29 51.99 -29 52.98 -29 54 C-28.34 53.67 -27.68 53.34 -27 53 C-27 52.34 -27 51.68 -27 51 C-27.66 51 -28.32 51 -29 51 Z M19 51 C19.33 51.99 19.66 52.98 20 54 C20 53.01 20 52.02 20 51 C19.67 51 19.34 51 19 51 Z M26 51 C25.67 51.66 25.34 52.32 25 53 C25.99 53 26.98 53 28 53 C28 52.34 28 51.68 28 51 C27.34 51 26.68 51 26 51 Z M-6 61 C-6 61.99 -6 62.98 -6 64 C-4.68 63.67 -3.36 63.34 -2 63 C-2.33 62.34 -2.66 61.68 -3 61 C-3.99 61 -4.98 61 -6 61 Z M-9 66 C-8.67 66.99 -8.34 67.98 -8 69 C-7.34 69 -6.68 69 -6 69 C-6.33 68.01 -6.66 67.02 -7 66 C-7.66 66 -8.32 66 -9 66 Z M-1 66 C-1.99 66.495 -1.99 66.495 -3 67 C-3 67.66 -3 68.32 -3 69 C-2.01 68.67 -1.02 68.34 0 68 C-0.33 67.34 -0.66 66.68 -1 66 Z " fill="#6A4E94" transform="translate(213,26)"/>
<path d="M0 0 C2.97 0 5.94 0 9 0 C9 26.07 9 52.14 9 79 C6.36 79 3.72 79 1 79 C0.505 75.535 0.505 75.535 0 72 C-0.66 72.7425 -1.32 73.485 -2 74.25 C-7.26878407 79.44499157 -13.23079655 81.57555537 -20.55078125 82.03515625 C-27.77502792 81.93145893 -34.19269293 79.3416652 -39.62890625 74.5703125 C-45.78271778 68.12346232 -48.18954678 60.22332618 -48.5 51.4375 C-48.20179031 43.05780765 -45.65737976 35.67177855 -39.80078125 29.5390625 C-32.66541291 23.44072167 -25.77297519 22.24685506 -16.50390625 22.57421875 C-9.38050276 23.43982742 -6.01722953 25.98277047 -1 31 C-0.67 20.77 -0.34 10.54 0 0 Z M-33.8125 36.75 C-38.79609962 44.15420514 -40.20241805 50.44564281 -38.6015625 59.171875 C-36.85608617 65.02035415 -32.92501106 68.57433706 -28 72 C-22.49374927 73.83541691 -16.0625082 74.14412545 -10.57421875 72.09375 C-5.22197733 68.94893018 -1.97958848 64.93876543 0 59 C0.64095286 51.31907314 0.86436497 44.31619082 -4 38 C-8.31716603 33.38713767 -12.54247667 31.20143634 -18.8125 30.6875 C-24.92019135 30.88340708 -29.42439635 32.45940977 -33.8125 36.75 Z " fill="#282C7C" transform="translate(54,9)"/>
<path d="M0 0 C1.65 0 3.3 0 5 0 C5 1.65 5 3.3 5 5 C3.35 5 1.7 5 0 5 C0 4.34 0 3.68 0 3 C-8.26816409 2.96833923 -16.53508832 2.97490095 -24.80309677 3.02846622 C-28.6435799 3.0521846 -32.48320113 3.06339547 -36.32373047 3.04467773 C-40.0396089 3.02705015 -43.75394984 3.04403255 -47.46964264 3.08367729 C-48.87756968 3.09287534 -50.2856327 3.09020536 -51.69350433 3.07469368 C-53.68591274 3.05489827 -55.67861548 3.08366352 -57.67089844 3.11352539 C-58.79896912 3.115746 -59.92703979 3.11796661 -61.08929443 3.12025452 C-66.68188691 4.17154781 -66.68188691 4.17154781 -77 11 C-59.18 11.33 -41.36 11.66 -23 12 C-23 11.34 -23 10.68 -23 10 C-21.35 10.33 -19.7 10.66 -18 11 C-18 12.32 -18 13.64 -18 15 C-18.99 15.33 -19.98 15.66 -21 16 C-21.99 15.505 -21.99 15.505 -23 15 C-24.89043588 14.86290542 -26.78555155 14.78855895 -28.68041992 14.74365234 C-29.87314011 14.71467865 -31.06586029 14.68570496 -32.29472351 14.65585327 C-37.07582418 14.57092035 -41.85683447 14.49834795 -46.63846874 14.45155907 C-50.25643509 14.4160334 -53.87213412 14.36334621 -57.48901367 14.26611328 C-78.46958927 13.34152443 -78.46958927 13.34152443 -97.02514648 21.94726562 C-101.79556095 25.23898863 -106.29676202 25.2317615 -111.9375 25.0625 C-112.91912109 25.06958984 -113.90074219 25.07667969 -114.91210938 25.08398438 C-117.27819238 25.09552624 -119.63500812 25.05972276 -122 25 C-114.93108258 29.94751208 -109.20057388 30.69900849 -100.703125 30.5234375 C-99.55132751 30.51873444 -98.39953003 30.51403137 -97.21282959 30.50918579 C-93.55792752 30.48795978 -89.90450991 30.43140122 -86.25 30.375 C-83.77996164 30.35847909 -81.30990771 30.3441346 -78.83984375 30.33203125 C-74.32304943 30.29817964 -69.80642464 30.26319025 -65.29003906 30.19287109 C-64.38674866 30.18001068 -63.48345825 30.16715027 -62.55279541 30.15390015 C-59.95555728 29.99732069 -57.53584727 29.57037479 -55 29 C-54.67 30.65 -54.34 32.3 -54 34 C-55.65614657 34.38218767 -57.32457024 34.71395102 -59 35 C-59.33 34.67 -59.66 34.34 -60 34 C-61.58836498 33.93452121 -63.17963412 33.93808875 -64.76904297 33.96923828 C-66.29862137 33.99257736 -66.29862137 33.99257736 -67.85910034 34.01638794 C-69.53372849 34.0430806 -69.53372849 34.0430806 -71.2421875 34.0703125 C-73.61326896 34.08123513 -75.98436702 34.08893536 -78.35546875 34.09375 C-82.08865271 34.10153253 -85.81787887 34.12380096 -89.55029297 34.20214844 C-103.89988218 34.483702 -114.61331206 34.06845546 -126.73075867 25.92976379 C-133.2346126 21.56700848 -138.32588794 20.57724132 -146.1875 21.3125 C-147.24646484 21.36212891 -148.30542969 21.41175781 -149.39648438 21.46289062 C-151.93924476 21.58945336 -154.46515975 21.76731149 -157 22 C-155.58724447 22.81055408 -154.17123584 23.61543965 -152.75390625 24.41796875 C-151.9657251 24.8668042 -151.17754395 25.31563965 -150.36547852 25.77807617 C-147.28794116 27.3678248 -144.36427488 28.21261652 -141 29 C-141.3125 30.9375 -141.3125 30.9375 -142 33 C-143.485 33.495 -143.485 33.495 -145 34 C-145.66 33.67 -146.32 33.34 -147 33 C-147 32.01 -147 31.02 -147 30 C-147.7230835 29.73300293 -148.44616699 29.46600586 -149.19116211 29.19091797 C-151.99303875 28.0029515 -154.36481851 26.5565787 -156.94140625 24.9453125 C-163.5317842 21.32606993 -169.51036671 20.8489557 -176.9375 20.875 C-178.17282471 20.8740332 -179.40814941 20.87306641 -180.6809082 20.87207031 C-187.25015709 21.11448767 -192.18717923 21.62659819 -197.18774414 26.10986328 C-200.40892668 29.63255647 -203.30089621 33.1181227 -204 38 C-205.65 38 -207.3 38 -209 38 C-209.495 36.02 -209.495 36.02 -210 34 C-209.030625 33.54625 -208.06125 33.0925 -207.0625 32.625 C-203.92920418 31.34213779 -203.92920418 31.34213779 -203 29 C-209.88692302 29.11776698 -216.7736922 29.24259493 -223.66040039 29.37231445 C-226.00281885 29.4156055 -228.34526768 29.45728469 -230.68774414 29.49731445 C-234.05624541 29.55515813 -237.42459464 29.61881219 -240.79296875 29.68359375 C-241.83897751 29.70030624 -242.88498627 29.71701874 -243.96269226 29.73423767 C-244.94333145 29.75418289 -245.92397064 29.77412811 -246.93432617 29.79467773 C-248.22339119 29.81799416 -248.22339119 29.81799416 -249.53849792 29.84178162 C-252.09924472 30.00637917 -254.49798318 30.44174063 -257 31 C-257.33 29.35 -257.66 27.7 -258 26 C-256.34385343 25.61781233 -254.67542976 25.28604898 -253 25 C-252.67 25.33 -252.34 25.66 -252 26 C-250.41377554 26.16114124 -248.82058291 26.25435788 -247.22753906 26.31982422 C-245.69894257 26.38265091 -245.69894257 26.38265091 -244.13946533 26.44674683 C-239.4250455 26.59757722 -234.71067699 26.70457135 -229.99462891 26.78955078 C-227.5189794 26.84604298 -225.04376235 26.92765387 -222.56982422 27.03564453 C-209.28883506 28.21708569 -209.28883506 28.21708569 -196.89205933 24.69998169 C-194.56433388 22.54867384 -192.66122024 20.20375818 -190.72270203 17.70378113 C-187.07791058 13.30096347 -184.26594532 12.09023247 -178.57150269 11.54949951 C-174.84247351 11.41376928 -171.14519967 11.43138845 -167.41674805 11.57983398 C-164.56654421 11.68734745 -161.73272179 11.68250967 -158.88085938 11.66210938 C-148.12826813 11.75737393 -141.13502923 13.26293666 -132.17260742 19.15942383 C-126.88877227 22.22482077 -121.8883553 22.52798944 -115.875 22.5 C-114.69373535 22.50515625 -113.5124707 22.5103125 -112.29541016 22.515625 C-98.01387304 21.85250654 -86.85079988 14.29830209 -75.35302734 6.46875 C-73 5 -73 5 -71 5 C-71 4.34 -71 3.68 -71 3 C-87.15885198 2.44089842 -99.10282979 3.72820795 -112 14 C-112.66 14.99 -113.32 15.98 -114 17 C-116.625 17.1875 -116.625 17.1875 -119 17 C-119 15.35 -119 13.7 -119 12 C-117.948125 11.835 -116.89625 11.67 -115.8125 11.5 C-111.58801409 10.51618331 -109.04765552 8.55845588 -105.6184082 5.95507812 C-96.40673985 -0.18772429 -85.9366134 1.00278883 -75.29296875 1.21875 C-73.1143859 1.23369791 -70.93577589 1.24507286 -68.75715637 1.25305176 C-63.06342409 1.28338477 -57.37136246 1.36178399 -51.67828369 1.45068359 C-45.85280956 1.53298358 -40.0270616 1.56915713 -34.20117188 1.609375 C-22.80005307 1.69479761 -11.40016624 1.83107389 0 2 C0 1.34 0 0.68 0 0 Z M-188 19 C-172.16 19 -156.32 19 -140 19 C-140 18.34 -140 17.68 -140 17 C-149.46625768 13.84458077 -160.69819314 14.75992516 -170.5625 14.6875 C-171.23998291 14.67291748 -171.91746582 14.65833496 -172.61547852 14.64331055 C-174.59880097 14.6008802 -176.58267184 14.58710658 -178.56640625 14.57421875 C-179.73115479 14.55963623 -180.89590332 14.54505371 -182.09594727 14.5300293 C-185.52844715 14.74088384 -185.52844715 14.74088384 -188 19 Z " fill="#6169C8" transform="translate(262,102)"/>
<path d="M0 0 C2.58187674 0.43031279 4.65914344 0.80208329 6.9375 2.125 C10.70176124 3.72195931 14.27374135 2.24208622 18 1 C20.83691881 2.11168339 22.99039533 3.71781597 25 6 C25.91564216 9.10234021 25.58843401 10.68337195 25 14 C23.125 16 23.125 16 21 17 C20.34 17 19.68 17 19 17 C19.03300659 19.27145346 19.10240005 21.54240126 19.1875 23.8125 C19.23970703 25.70935547 19.23970703 25.70935547 19.29296875 27.64453125 C19.62803556 31.17451754 19.62803556 31.17451754 22.5078125 32.671875 C23.33023438 33.11015625 24.15265625 33.5484375 25 34 C26.01565534 37.08101034 25.80004269 39.87307258 25 43 C22.3125 45.625 22.3125 45.625 19 47 C16.4386485 46.81704632 14.57297287 46.22545237 12.203125 45.29296875 C7.36602366 44.64973719 2.72454298 48.19606296 -1 51 C-2.37967524 54.53514293 -2.37967524 54.53514293 -3 58 C-5.93721803 60.61086047 -7.63880511 62.0324094 -11.625 61.9375 C-14.34118997 60.86531975 -16.03061851 60.18820165 -18 58 C-18.25 54.3125 -18.25 54.3125 -18 51 C-18.66 51 -19.32 51 -20 51 C-19.67 50.01 -19.34 49.02 -19 48 C-18.01 47.690625 -17.02 47.38125 -16 47.0625 C-15.01 46.711875 -14.02 46.36125 -13 46 C-12.03122943 43.96756452 -12.03122943 43.96756452 -12 42 C-12.99 41.67 -13.98 41.34 -15 41 C-13.89591797 40.70996094 -13.89591797 40.70996094 -12.76953125 40.4140625 C-11.79371094 40.15367188 -10.81789062 39.89328125 -9.8125 39.625 C-8.84957031 39.36976562 -7.88664063 39.11453125 -6.89453125 38.8515625 C-4.15500595 38.04560229 -1.57907503 37.22813097 1 36 C2.31068333 33.55711372 2.31068333 33.55711372 3 31 C3.33 30.34 3.66 29.68 4 29 C4.60329022 23.1991325 4.06767254 19.07345843 1 14 C0.33333333 12.66666667 -0.33333333 11.33333333 -1 10 C-0.34 10 0.32 10 1 10 C1 10.66 1 11.32 1 12 C3.97 12.495 3.97 12.495 7 13 C7.66 11.02 8.32 9.04 9 7 C8.071875 6.71125 7.14375 6.4225 6.1875 6.125 C3 5 3 5 0 3 C0 2.01 0 1.02 0 0 Z M16 5 C16 5.99 16 6.98 16 8 C16.99 8 17.98 8 19 8 C18.67 7.01 18.34 6.02 18 5 C17.34 5 16.68 5 16 5 Z M13 10 C13 10.99 13 11.98 13 13 C13.66 13 14.32 13 15 13 C14.67 12.01 14.34 11.02 14 10 C13.67 10 13.34 10 13 10 Z M21 10 C20.01 10.495 20.01 10.495 19 11 C19 11.66 19 12.32 19 13 C19.99 12.67 20.98 12.34 22 12 C21.67 11.34 21.34 10.68 21 10 Z M10 15 C7.61607883 16.93970052 7.61607883 16.93970052 7.8046875 20.4765625 C7.81798507 21.85950968 7.84183768 23.24238654 7.875 24.625 C7.88402344 25.33140625 7.89304688 26.0378125 7.90234375 26.765625 C7.92592397 28.51056098 7.96179539 30.25532295 8 32 C9.84725052 32.69159401 9.84725052 32.69159401 12 33 C12.99 32.34 13.98 31.68 15 31 C15.36558117 27.64496524 15.36558117 27.64496524 15.1875 23.875 C15.16042969 22.59367187 15.13335937 21.31234375 15.10546875 19.9921875 C15.07066406 19.00476563 15.03585938 18.01734375 15 17 C12.525 16.01 12.525 16.01 10 15 Z M16 34 C16 34.99 16 35.98 16 37 C17.32 36.34 18.64 35.68 20 35 C18.68 34.67 17.36 34.34 16 34 Z M3.32421875 36.14453125 C2.78410156 36.69496094 2.24398437 37.24539062 1.6875 37.8125 C-1.75915403 41.02788503 -4.41409427 42.06410087 -9 43 C-9 43.99 -9 44.98 -9 46 C-6.27084614 48.27020083 -6.27084614 48.27020083 -3.64453125 47.796875 C-0.72816323 46.91808759 1.67203593 45.76777786 4.3125 44.25 C5.63701172 43.51523438 5.63701172 43.51523438 6.98828125 42.765625 C9.29251762 41.14458867 9.29251762 41.14458867 9.29296875 38.296875 C9.19628906 37.53890625 9.09960938 36.7809375 9 36 C6.05344919 34.84545463 6.05344919 34.84545463 3.32421875 36.14453125 Z M13 39 C13.33 39.99 13.66 40.98 14 42 C14 41.01 14 40.02 14 39 C13.67 39 13.34 39 13 39 Z M20 39 C19.67 39.66 19.34 40.32 19 41 C19.99 41 20.98 41 22 41 C22 40.34 22 39.68 22 39 C21.34 39 20.68 39 20 39 Z M-12 49 C-12 49.99 -12 50.98 -12 52 C-10.68 51.67 -9.36 51.34 -8 51 C-8.33 50.34 -8.66 49.68 -9 49 C-9.99 49 -10.98 49 -12 49 Z M-15 54 C-14.67 54.99 -14.34 55.98 -14 57 C-13.34 57 -12.68 57 -12 57 C-12.33 56.01 -12.66 55.02 -13 54 C-13.66 54 -14.32 54 -15 54 Z M-7 54 C-7.99 54.495 -7.99 54.495 -9 55 C-9 55.66 -9 56.32 -9 57 C-8.01 56.67 -7.02 56.34 -6 56 C-6.33 55.34 -6.66 54.68 -7 54 Z " fill="#4B75B0" transform="translate(219,38)"/>
<path d="M0 0 C2.89019954 1.59873164 5.13729507 3.25738095 7.375 5.6875 C8.035 3.7075 8.695 1.7275 9.375 -0.3125 C12.015 -0.3125 14.655 -0.3125 17.375 -0.3125 C17.375 10.9075 17.375 22.1275 17.375 33.6875 C17.045 33.6875 16.715 33.6875 16.375 33.6875 C16.045 27.0875 15.715 20.4875 15.375 13.6875 C14.385 14.6775 13.395 15.6675 12.375 16.6875 C11.715 16.6875 11.055 16.6875 10.375 16.6875 C10.39820313 17.79609375 10.42140625 18.9046875 10.4453125 20.046875 C10.46407577 21.51040992 10.48227537 22.97395214 10.5 24.4375 C10.51675781 25.16710937 10.53351563 25.89671875 10.55078125 26.6484375 C10.58572239 30.4919624 10.54999684 33.43356772 8.375 36.6875 C7.715 36.6875 7.055 36.6875 6.375 36.6875 C6.54 36.06875 6.705 35.45 6.875 34.8125 C8.03369902 27.57063115 8.32352651 20.13491916 4.375 13.6875 C-0.15273219 8.667623 -3.71708622 6.87818287 -10.4375 6.4375 C-16.07110715 6.5317425 -20.14195928 8.4351545 -24.4375 12.0625 C-27.94669433 16.2735332 -28.85929717 20.09527753 -29.25 25.5 C-29.32476562 26.47582031 -29.39953125 27.45164062 -29.4765625 28.45703125 C-29.52554688 29.19308594 -29.57453125 29.92914063 -29.625 30.6875 C-30.285 30.3575 -30.945 30.0275 -31.625 29.6875 C-31.625 27.7075 -31.625 25.7275 -31.625 23.6875 C-33.275 23.3575 -34.925 23.0275 -36.625 22.6875 C-36.955 24.6675 -37.285 26.6475 -37.625 28.6875 C-37.955 28.6875 -38.285 28.6875 -38.625 28.6875 C-39.24292567 19.50443791 -37.87674625 12.83499491 -32.375 5.375 C-23.87031142 -2.93640021 -10.76579916 -5.27983965 0 0 Z " fill="#272B74" transform="translate(130.625,34.3125)"/>
<path d="M0 0 C0.99 0 1.98 0 3 0 C3 0.99 3 1.98 3 3 C3.66 3 4.32 3 5 3 C5.02578125 3.67804687 5.0515625 4.35609375 5.078125 5.0546875 C5.60034917 13.6239114 6.87846832 21.62741902 13.5625 27.5625 C19.08622723 31.9052076 25.24609963 31.61319459 32 31 C37.89017807 29.23825305 40.84501975 24.97148402 44 20 C44.82638376 22.89234315 45 24.88742431 45 28 C45.99 28 46.98 28 48 28 C48.33 27.34 48.66 26.68 49 26 C49.495 27.485 49.495 27.485 50 29 C51.61780157 27.38219843 51.22272147 25.54364482 51.31640625 23.30859375 C51.37924805 21.89223633 51.37924805 21.89223633 51.44335938 20.44726562 C51.48267578 19.45404297 51.52199219 18.46082031 51.5625 17.4375 C51.62727539 15.94186523 51.62727539 15.94186523 51.69335938 14.41601562 C51.79980298 11.9441585 51.90181928 9.4721969 52 7 C52.33 7 52.66 7 53 7 C54.32378398 17.30660383 54.09139066 27.63223764 54 38 C51.36 38 48.72 38 46 38 C45.505 34.535 45.505 34.535 45 31 C44.34 31.7425 43.68 32.485 43 33.25 C37.73121593 38.44499157 31.76920345 40.57555537 24.44921875 41.03515625 C17.25148281 40.93183947 10.60341094 38.40040187 5.3359375 33.4296875 C-1.59001427 25.82137595 -2.33188246 19.74972086 -2.30078125 9.62109375 C-2.00786529 6.09468988 -1.27146317 3.28756811 0 0 Z " fill="#373BB5" transform="translate(9,50)"/>
<path d="M0 0 C0.66 0 1.32 0 2 0 C1.67 1.65 1.34 3.3 1 5 C2.98 5 4.96 5 7 5 C7.55133377 11.6160052 6.93663696 16.53554643 3 22 C-3.01427596 28.9341064 -10.32278118 32.36629433 -19.39453125 33.37890625 C-30.98330459 33.77499442 -40.218935 31.0653271 -49.2578125 23.78125 C-51 22 -51 22 -53 18 C-50.69 16.02 -48.38 14.04 -46 12 C-45.55011719 12.53109375 -45.10023437 13.0621875 -44.63671875 13.609375 C-38.5406355 20.30407163 -32.36744195 23.35220528 -23.375 24.4375 C-15.96772482 23.47729766 -10.2572057 21.38237727 -5 16 C-3.13076797 12.85011127 -3.13076797 12.85011127 -2 10 C-1.34 10 -0.68 10 0 10 C0 6.7 0 3.4 0 0 Z " fill="#4043EE" transform="translate(140,80)"/>
<path d="M0 0 C0.66 0.66 1.32 1.32 2 2 C2.804375 2.268125 3.60875 2.53625 4.4375 2.8125 C7.71361277 4.3306986 8.55383546 5.7271013 10 9 C10.1875 11.8125 10.1875 11.8125 10 14 C8.68 14 7.36 14 6 14 C6.83333333 16.16666667 6.83333333 16.16666667 9 17 C8.73052832 20.23366021 8.2012532 21.7662866 6.0625 24.25 C1.77110775 26.70222414 -2.07835741 27.32197662 -7 27 C-10.00952421 26.06296865 -11.44530017 25.0224707 -14 23 C-15.375 20.3125 -15.375 20.3125 -16 18 C-16.33 17.67 -16.66 17.34 -17 17 C-17.4729064 9.78817734 -17.4729064 9.78817734 -15.5 6.5 C-15.005 6.005 -14.51 5.51 -14 5 C-13.34 5.33 -12.68 5.66 -12 6 C-12 4.68 -12 3.36 -12 2 C-7.88581814 0.00524516 -4.55244646 -0.34358086 0 0 Z M0 4 C0 4.66 0 5.32 0 6 C0.99 6.33 1.98 6.66 3 7 C2.67 6.01 2.34 5.02 2 4 C1.34 4 0.68 4 0 4 Z M-13 9 C-12 13 -12 13 -12 13 Z M-15 16 C-15 16.66 -15 17.32 -15 18 C-14.01 18.33 -13.02 18.66 -12 19 C-12 18.01 -12 17.02 -12 16 C-12.99 16 -13.98 16 -15 16 Z M-10 19 C-9.67 19.99 -9.34 20.98 -9 22 C-8.34 21.67 -7.68 21.34 -7 21 C-7.99 20.34 -8.98 19.68 -10 19 Z M-2.6875 22.5 C-3.120625 22.995 -3.55375 23.49 -4 24 C-1.13275314 23.42655063 -0.1385485 23.1385485 2 21 C-1.00259517 20.66781808 -1.00259517 20.66781808 -2.6875 22.5 Z M2 22 C1.67 22.66 1.34 23.32 1 24 C1.66 24 2.32 24 3 24 C2.67 23.34 2.34 22.68 2 22 Z M-9 23 C-8.34 23.66 -7.68 24.32 -7 25 C-7 24.34 -7 23.68 -7 23 C-7.66 23 -8.32 23 -9 23 Z " fill="#446E9E" transform="translate(82,5)"/>
<path d="M0 0 C0.66 0.66 1.32 1.32 2 2 C2.804375 2.268125 3.60875 2.53625 4.4375 2.8125 C7.71361277 4.3306986 8.55383546 5.7271013 10 9 C10.1875 11.8125 10.1875 11.8125 10 14 C8.68 14 7.36 14 6 14 C5.67 14.99 5.34 15.98 5 17 C5.99 16.67 6.98 16.34 8 16 C8.8125 17.6875 8.8125 17.6875 9 20 C5.61550701 24.44214705 2.45598805 26.0593124 -3 27 C-7.44393931 26.92338036 -9.35839677 26.52754043 -12.8125 23.6875 C-16.37719879 19.30801291 -17.41011786 16.51424288 -17.25390625 10.890625 C-16.89232873 8.19826318 -15.90462725 6.90462725 -14 5 C-13.34 4.278125 -12.68 3.55625 -12 2.8125 C-8.34620292 -0.4987536 -4.73760276 -0.2584147 0 0 Z M-13 6 C-9.37673261 7.2077558 -8.35853631 6.54311128 -5 5 C-8.62326739 3.7922442 -9.64146369 4.45688872 -13 6 Z M0 4 C0.33 4.99 0.66 5.98 1 7 C1.66 7 2.32 7 3 7 C2.67 6.01 2.34 5.02 2 4 C1.34 4 0.68 4 0 4 Z M-13 10 C-12 13 -12 13 -12 13 Z M-15 16 C-15 16.66 -15 17.32 -15 18 C-14.34 18 -13.68 18 -13 18 C-13 17.34 -13 16.68 -13 16 C-13.66 16 -14.32 16 -15 16 Z M-10 20 C-9.34 21.65 -8.68 23.3 -8 25 C-7.34 24.01 -6.68 23.02 -6 22 C-7.32 21.34 -8.64 20.68 -10 20 Z M-2.6875 22.5 C-3.120625 22.995 -3.55375 23.49 -4 24 C-1.13275314 23.42655063 -0.1385485 23.1385485 2 21 C-1.00259517 20.66781808 -1.00259517 20.66781808 -2.6875 22.5 Z M2 22 C1.67 22.66 1.34 23.32 1 24 C1.66 24 2.32 24 3 24 C2.67 23.34 2.34 22.68 2 22 Z " fill="#366198" transform="translate(167,5)"/>
<path d="M0 0 C2.97 0 5.94 0 9 0 C9 17.82 9 35.64 9 54 C6.03 54 3.06 54 0 54 C0 36.18 0 18.36 0 0 Z " fill="#2D3195" transform="translate(159,34)"/>
<path d="M0 0 C2.97 0 5.94 0 9 0 C9 17.82 9 35.64 9 54 C6.03 54 3.06 54 0 54 C0 36.18 0 18.36 0 0 Z " fill="#2F339A" transform="translate(74,34)"/>
<path d="M0 0 C0.99 0.66 1.98 1.32 3 2 C3.37109375 3.953125 3.37109375 3.953125 3.4375 6.25 C3.87638484 11.70972744 5.84958353 15.11838559 10 18.75 C11.98244068 20.04903411 11.98244068 20.04903411 14.1875 21 C16 22 16 22 17 25 C11.2408982 24.76493462 8.7148544 23.37425566 4.67578125 19.27734375 C2.82097983 17.59585949 2.82097983 17.59585949 -1 18 C-0.9307652 20.39919854 -0.9307652 20.39919854 0 23 C2.5047259 24.90502604 2.5047259 24.90502604 5.5625 26.3125 C6.57441406 26.82425781 7.58632812 27.33601563 8.62890625 27.86328125 C9.41136719 28.23839844 10.19382813 28.61351563 11 29 C10.34 29.99 9.68 30.98 9 32 C6.16533841 30.9161588 3.6303773 29.78438676 1 28.25 C-1.90397419 26.65138859 -1.90397419 26.65138859 -4.5625 27.875 C-5.7690625 28.431875 -5.7690625 28.431875 -7 29 C-10.62774567 28.64607359 -12.65119623 27.67440189 -16 26 C-16 22.37 -16 18.74 -16 15 C-10.4584498 13.03736764 -6.79141983 12.98396143 -1 14 C-1.01160156 13.32453125 -1.02320313 12.6490625 -1.03515625 11.953125 C-1.04417969 11.06109375 -1.05320313 10.1690625 -1.0625 9.25 C-1.07410156 8.36828125 -1.08570313 7.4865625 -1.09765625 6.578125 C-1.00826198 4.2181162 -0.66912821 2.25501476 0 0 Z M-10 16 C-10 16.99 -10 17.98 -10 19 C-8.68 18.34 -7.36 17.68 -6 17 C-7.32 16.67 -8.64 16.34 -10 16 Z M-13 21 C-12.67 21.99 -12.34 22.98 -12 24 C-12 23.01 -12 22.02 -12 21 C-12.33 21 -12.66 21 -13 21 Z M-6 21 C-6 21.99 -6 22.98 -6 24 C-5.34 23.67 -4.68 23.34 -4 23 C-4 22.34 -4 21.68 -4 21 C-4.66 21 -5.32 21 -6 21 Z " fill="#5B4C91" transform="translate(190,56)"/>
<path d="M0 0 C0.82153963 14.34760289 1.13523642 28.62957006 1 43 C0.67 43 0.34 43 0 43 C0 41.35 0 39.7 0 38 C-0.61875 38.185625 -1.2375 38.37125 -1.875 38.5625 C-4 39 -4 39 -6 38 C-5.67 36.35 -5.34 34.7 -5 33 C-5.66 33 -6.32 33 -7 33 C-7 36.3 -7 39.6 -7 43 C-7.66 43 -8.32 43 -9 43 C-9 40.03 -9 37.06 -9 34 C-11.97 36.475 -11.97 36.475 -15 39 C-15.66 38.67 -16.32 38.34 -17 38 C-15.86280581 34.58841744 -14.95657056 33.88145399 -12 32 C-11.34 32 -10.68 32 -10 32 C-10 31.01 -10 30.02 -10 29 C-9.01 28.67 -8.02 28.34 -7 28 C-11.10460315 27.53459991 -11.10460315 27.53459991 -13.5 30.4375 C-14.7375 31.7059375 -14.7375 31.7059375 -16 33 C-18.3125 33.8125 -18.3125 33.8125 -20 34 C-20 33.34 -20 32.68 -20 32 C-18 30.66666667 -16 29.33333333 -14 28 C-13.443125 27.2575 -12.88625 26.515 -12.3125 25.75 C-11.879375 25.1725 -11.44625 24.595 -11 24 C-10.01 24 -9.02 24 -8 24 C-7.08431563 19.87942035 -7.03770428 16.12661467 -7.1875 11.9375 C-7.23262621 7.8961968 -7.21596341 6.3671378 -5.125 2.8125 C-1.82758621 0 -1.82758621 0 0 0 Z " fill="#3236A8" transform="translate(147,47)"/>
<path d="M0 0 C0.99 0.66 1.98 1.32 3 2 C2.67 2.66 2.34 3.32 2 4 C0.865625 3.814375 -0.26875 3.62875 -1.4375 3.4375 C-3.2009375 3.2209375 -3.2009375 3.2209375 -5 3 C-5.33 3.33 -5.66 3.66 -6 4 C-5.01 4.33 -4.02 4.66 -3 5 C-3 5.66 -3 6.32 -3 7 C-2.34 7.33 -1.68 7.66 -1 8 C-1.66 8 -2.32 8 -3 8 C-3.33 8.66 -3.66 9.32 -4 10 C-6.1147633 11.88818152 -7.51204879 12.91403544 -10.328125 13.41015625 C-13.36217893 14.07995471 -15.3754645 15.22646364 -18 16.875 C-18.825 17.38804688 -19.65 17.90109375 -20.5 18.4296875 C-22.23025252 19.51650236 -23.95934375 20.60516742 -25.6875 21.6953125 C-28 23 -28 23 -30 23 C-29.67 24.65 -29.34 26.3 -29 28 C-32.3 27.67 -35.6 27.34 -39 27 C-39.51908669 20.42490189 -39.51908669 20.42490189 -39 17 C-36.3125 14.25 -36.3125 14.25 -33 13 C-30.3125 13.6875 -30.3125 13.6875 -28 15 C-24.99435112 16.36506241 -24.99435112 16.36506241 -22.1171875 14.8125 C-18.90622252 13.01745452 -15.89802646 11.26990413 -13 9 C-11.9434891 5.36852515 -11.9434891 5.36852515 -12 2 C-8.12585367 -1.64625537 -4.97902966 -1.19865529 0 0 Z M-9 7 C-8.67 7.99 -8.34 8.98 -8 10 C-7.34 10 -6.68 10 -6 10 C-6 9.34 -6 8.68 -6 8 C-6.99 7.67 -7.98 7.34 -9 7 Z M-33 17 C-33 17.99 -33 18.98 -33 20 C-32.01 20 -31.02 20 -30 20 C-30.33 19.01 -30.66 18.02 -31 17 C-31.66 17 -32.32 17 -33 17 Z M-36 22 C-36 22.99 -36 23.98 -36 25 C-35.34 25 -34.68 25 -34 25 C-34.33 24.01 -34.66 23.02 -35 22 C-35.33 22 -35.66 22 -36 22 Z " fill="#71428A" transform="translate(213,26)"/>
<path d="M0 0 C3.75835253 2.42204941 6.18495565 4.48714731 7.3828125 8.92578125 C8.19618313 14.07424428 7.90435362 17.4240626 4.8125 21.8125 C1.9881983 25.06044695 0.4322092 26.48758096 -3.77734375 27.33203125 C-8.60952934 27.61705729 -12.30446164 27.33002664 -16.25 24.375 C-19.80770125 20.73157101 -21.1446727 16.87468705 -21.1875 11.8125 C-20.40651763 7.33960095 -18.93944793 4.54564923 -15.6875 1.375 C-10.54449933 -1.83937542 -5.67047147 -2.11252859 0 0 Z M-14.1875 4.8125 C-17.0988603 7.3482009 -17.18445176 8.78887615 -17.6875 12.6875 C-17.5358145 16.06882262 -16.99719645 17.13958423 -15.1875 20.25 C-11.9468794 23.0180301 -10.26263109 23.76557689 -6.11328125 23.984375 C-2.25380171 23.63991841 -0.10675251 21.66835578 2.625 19.125 C4.37581382 15.71552045 4.46023231 12.51487897 3.8125 8.8125 C1.81493339 5.13697744 0.31213533 4.03874996 -3.5 2.3125 C-8.07718787 1.69186436 -10.21702363 2.52184056 -14.1875 4.8125 Z " fill="#5E5694" transform="translate(215.1875,49.1875)"/>
<path d="M0 0 C0.99 0 1.98 0 3 0 C3 0.99 3 1.98 3 3 C3.66 3 4.32 3 5 3 C5.02578125 3.67804687 5.0515625 4.35609375 5.078125 5.0546875 C5.53834443 12.6064699 6.47215499 20.20718809 11.8203125 25.95703125 C13.49568805 27.40517975 15.17908486 28.74172718 17 30 C16.01 30.33 15.02 30.66 14 31 C13.01 30.34 12.02 29.68 11 29 C9.02 29.99 9.02 29.99 7 31 C7.33 32.32 7.66 33.64 8 35 C2.61083923 31.20309128 -0.40828609 27.4844254 -2 21 C-2.62091696 13.63437252 -2.67272053 6.95976425 0 0 Z " fill="#3335AC" transform="translate(9,50)"/>
<path d="M0 0 C2.475 0.99 2.475 0.99 5 2 C5.28782447 5.05093939 5.43064949 7.95853798 5 11 C2.8125 13.125 2.8125 13.125 0 14 C-2.48924438 13.75714689 -4.47876044 13.20509644 -6.796875 12.29296875 C-10.03236461 11.86271747 -11.83949098 13.04533632 -14.6875 14.5625 C-15.66074219 15.05878906 -16.63398438 15.55507812 -17.63671875 16.06640625 C-20.30084416 17.85778845 -20.30084416 17.85778845 -20.83203125 21.21484375 C-20.91517578 22.59349609 -20.91517578 22.59349609 -21 24 C-21.99 23.67 -22.98 23.34 -24 23 C-24 22.01 -24 21.02 -24 20 C-24.66 20 -25.32 20 -26 20 C-26 20.66 -26 21.32 -26 22 C-26.66 22 -27.32 22 -28 22 C-28 22.99 -28 23.98 -28 25 C-28.66 25 -29.32 25 -30 25 C-29.67 23.35 -29.34 21.7 -29 20 C-28.34 20 -27.68 20 -27 20 C-27 18.02 -27 16.04 -27 14 C-26.05125 13.95875 -25.1025 13.9175 -24.125 13.875 C-18.86782655 13.12089725 -13.98662293 10.45201832 -10 7 C-9.1461375 4.39520864 -9.1461375 4.39520864 -9 2 C-8.01 1.67 -7.02 1.34 -6 1 C-5 4 -5 4 -5 8 C-4.34 8.33 -3.68 8.66 -3 9 C-3 7.68 -3 6.36 -3 5 C-2.01 4.67 -1.02 4.34 0 4 C0 2.68 0 1.36 0 0 Z M1 6 C0.67 6.66 0.34 7.32 0 8 C0.99 8 1.98 8 3 8 C3 7.34 3 6.68 3 6 C2.34 6 1.68 6 1 6 Z " fill="#4A8ABD" transform="translate(238,71)"/>
<path d="M0 0 C0.66 0 1.32 0 2 0 C1.67 1.65 1.34 3.3 1 5 C2.98 5 4.96 5 7 5 C7.54878752 11.5854502 6.96760095 16.57761204 3 22 C-0.54159704 25.68674446 -4.23633884 29.02154395 -9 31 C-9.99 31 -10.98 31 -12 31 C-12 30.34 -12 29.68 -12 29 C-11.01 29 -10.02 29 -9 29 C-8.67 28.01 -8.34 27.02 -8 26 C-6.68 26 -5.36 26 -4 26 C-4.66 24.68 -5.32 23.36 -6 22 C-6.7425 22.350625 -7.485 22.70125 -8.25 23.0625 C-11.1322726 24.04509293 -12.21176345 24.0326802 -15 23 C-13.9275 22.443125 -12.855 21.88625 -11.75 21.3125 C-6.98846747 18.59025009 -4.22015133 14.9953405 -2 10 C-1.34 10 -0.68 10 0 10 C0 6.7 0 3.4 0 0 Z " fill="#3E40D4" transform="translate(140,80)"/>
<path d="M0 0 C2.58187674 0.43031279 4.65914344 0.80208329 6.9375 2.125 C10.70176124 3.72195931 14.27374135 2.24208622 18 1 C19.82421875 1.99609375 19.82421875 1.99609375 21.6875 3.4375 C22.31011719 3.91058594 22.93273437 4.38367187 23.57421875 4.87109375 C24.27998047 5.42990234 24.27998047 5.42990234 25 6 C24.67 6.99 24.34 7.98 24 9 C23.34 8.34 22.68 7.68 22 7 C21.67 8.32 21.34 9.64 21 11 C20.34 11 19.68 11 19 11 C18.67 9.35 18.34 7.7 18 6 C17.01 6.495 17.01 6.495 16 7 C15.53248212 9.35599235 15.53248212 9.35599235 15.375 12.0625 C15.30023438 12.98160156 15.22546875 13.90070312 15.1484375 14.84765625 C15.09945312 15.55792969 15.05046875 16.26820312 15 17 C13.35 16.67 11.7 16.34 10 16 C9.12132271 19.73437848 8.91087781 23.16774573 9 27 C8.34 26.01 7.68 25.02 7 24 C6.34 24.33 5.68 24.66 5 25 C4.81824219 24.31292969 4.63648438 23.62585938 4.44921875 22.91796875 C4.19785156 22.01691406 3.94648438 21.11585937 3.6875 20.1875 C3.44386719 19.29417969 3.20023438 18.40085937 2.94921875 17.48046875 C1.96958544 14.92052162 0.96629339 13.8341056 -1 12 C-1 11.34 -1 10.68 -1 10 C-0.34 10 0.32 10 1 10 C1 10.66 1 11.32 1 12 C3.97 12.495 3.97 12.495 7 13 C7.66 11.02 8.32 9.04 9 7 C7.6078125 6.566875 7.6078125 6.566875 6.1875 6.125 C3 5 3 5 0 3 C0 2.01 0 1.02 0 0 Z M13 10 C13 10.99 13 11.98 13 13 C13.66 13 14.32 13 15 13 C14.67 12.01 14.34 11.02 14 10 C13.67 10 13.34 10 13 10 Z " fill="#5364A8" transform="translate(219,38)"/>
<path d="M0 0 C1.32 0 2.64 0 4 0 C4 0.66 4 1.32 4 2 C4.66 2 5.32 2 6 2 C6.226875 2.94875 6.45375 3.8975 6.6875 4.875 C9.33488495 13.97651987 9.33488495 13.97651987 15.55078125 20.75 C18.00200035 21.97040894 20.43207254 23.05260929 23 24 C19.03483443 25.19298271 16.81058817 24.73961634 13 23 C11.625 20.875 11.625 20.875 11 19 C10.34 19 9.68 19 9 19 C8.22757731 20.83700789 8.22757731 20.83700789 8 23 C9.35405861 24.60411246 9.35405861 24.60411246 11 26 C11.33 26.99 11.66 27.98 12 29 C7.87572988 27.69059675 6.10410284 26.34300587 3.8125 22.6875 C3.32394531 21.92824219 2.83539063 21.16898438 2.33203125 20.38671875 C-0.50805325 15.29788699 -1.21765298 12.05476449 -0.625 6.1875 C-0.51414062 5.02605469 -0.40328125 3.86460938 -0.2890625 2.66796875 C-0.19367188 1.78753906 -0.09828125 0.90710937 0 0 Z " fill="#31339F" transform="translate(93,56)"/>
<path d="M0 0 C2.8125 1.5625 2.8125 1.5625 5 4 C5.63678669 6.95183364 5.39254033 8.90874491 5 12 C3.29715802 14.4326314 1.5229449 15.31803673 -1 17 C-5.24191654 16.72923937 -7.91402754 15.9359146 -11 13 C-11.87661258 9.59031861 -11.74581744 6.43188176 -11 3 C-7.43737187 -0.56262813 -4.77551211 -1.95918445 0 0 Z M-5 3 C-5 3.99 -5 4.98 -5 6 C-3.68 5.67 -2.36 5.34 -1 5 C-1.33 4.34 -1.66 3.68 -2 3 C-2.99 3 -3.98 3 -5 3 Z M-8 8 C-7.67 9.32 -7.34 10.64 -7 12 C-6.34 12 -5.68 12 -5 12 C-5.33 10.68 -5.66 9.36 -6 8 C-6.66 8 -7.32 8 -8 8 Z M0 8 C-0.99 8.495 -0.99 8.495 -2 9 C-2 9.99 -2 10.98 -2 12 C-1.01 11.67 -0.02 11.34 1 11 C0.67 10.01 0.34 9.02 0 8 Z " fill="#565499" transform="translate(212,54)"/>
<path d="M0 0 C1.03125 0.9075 2.0625 1.815 3.125 2.75 C8.49344293 7.32072249 13.14238664 10.35417279 20 12 C19.01 12.66 18.02 13.32 17 14 C14.625 13.25 14.625 13.25 12 12 C11.071875 11.62875 10.14375 11.2575 9.1875 10.875 C8.465625 10.58625 7.74375 10.2975 7 10 C7 11.65 7 13.3 7 15 C16.33630168 18.43969009 25.09832404 19.3062374 35 19 C28.83411865 22.77811357 20.54436153 21.70717847 13.73046875 20.34765625 C6.50914312 18.18774756 -1.4050647 14.63497877 -5.2421875 7.78125 C-5.49226563 7.1934375 -5.74234375 6.605625 -6 6 C-4.02 4.02 -2.04 2.04 0 0 Z " fill="#4145CC" transform="translate(93,92)"/>
<path d="M0 0 C0.66 0.66 1.32 1.32 2 2 C2.804375 2.268125 3.60875 2.53625 4.4375 2.8125 C7.71361277 4.3306986 8.55383546 5.7271013 10 9 C10.1875 11.8125 10.1875 11.8125 10 14 C8.68 14 7.36 14 6 14 C5.67 14.99 5.34 15.98 5 17 C5.99 16.67 6.98 16.34 8 16 C8.33 17.32 8.66 18.64 9 20 C8.01 20 7.02 20 6 20 C6 20.66 6 21.32 6 22 C2.65626525 21.44271087 -0.03312999 20.64826111 -3 19 C0 17 0 17 2 17 C1.67039784 11.98464948 1.67039784 11.98464948 -1 8 C-2.99172182 7.30899447 -4.99161804 6.64097297 -7 6 C-7.33 5.67 -7.66 5.34 -8 5 C-9.67542976 5.28604898 -11.34385343 5.61781233 -13 6 C-12.8125 4.125 -12.8125 4.125 -12 2 C-8.10531311 -0.29099229 -4.43917803 -0.3350323 0 0 Z M0 4 C0.33 4.99 0.66 5.98 1 7 C1.66 7 2.32 7 3 7 C2.67 6.01 2.34 5.02 2 4 C1.34 4 0.68 4 0 4 Z " fill="#3672A5" transform="translate(167,5)"/>
<path d="M0 0 C3.71471055 0.36241079 5.83857869 0.88977048 8.95849609 3.02026367 C14.04637656 5.99801917 19.36167931 5.51652142 25.1015625 5.42578125 C26.25618988 5.42249313 27.41081726 5.41920502 28.60043335 5.41581726 C32.27567447 5.40011402 35.94999518 5.35606667 39.625 5.3125 C42.10415925 5.30100442 44.58332706 5.29122051 47.0625 5.28320312 C49.4296968 5.26977987 51.79688568 5.25485713 54.1640625 5.23828125 C55.83137924 5.22720085 55.83137924 5.22720085 57.53237915 5.21589661 C58.57050751 5.20306137 59.60863586 5.19022614 60.67822266 5.17700195 C61.58754547 5.16715775 62.49686829 5.15731354 63.43374634 5.14717102 C66.03828987 4.99780413 68.45794974 4.57345656 71 4 C71.495 6.475 71.495 6.475 72 9 C70.34385343 9.38218767 68.67542976 9.71395102 67 10 C66.505 9.505 66.505 9.505 66 9 C64.37528323 8.91360376 62.74685555 8.89592241 61.11987305 8.90576172 C60.07756027 8.90841034 59.0352475 8.91105896 57.96134949 8.91378784 C56.82297134 8.91903473 55.6845932 8.92428162 54.51171875 8.9296875 C52.10871675 8.92109422 49.70572089 8.91061495 47.30273438 8.8984375 C43.50856907 8.88181893 39.71576213 8.87480945 35.92163086 8.90039062 C8.32936902 9.05972648 8.32936902 9.05972648 0 1 C0 0.67 0 0.34 0 0 Z " fill="#7378B5" transform="translate(136,127)"/>
<path d="M0 0 C0.90451401 -0.00307663 1.80902802 -0.00615326 2.74095154 -0.00932312 C3.71081497 -0.0021376 4.68067841 0.00504791 5.67993164 0.01245117 C7.1851815 0.0131385 7.1851815 0.0131385 8.72084045 0.01383972 C10.84157494 0.01685858 12.96230728 0.02473393 15.08300781 0.03710938 C18.32438034 0.05533162 21.56546642 0.05761919 24.80688477 0.05737305 C26.86873619 0.06228992 28.93058568 0.06811897 30.99243164 0.07495117 C31.96027084 0.076064 32.92811005 0.07717682 33.92527771 0.07832336 C35.28677696 0.08789314 35.28677696 0.08789314 36.67578125 0.09765625 C37.46979843 0.10146805 38.26381561 0.10527985 39.08189392 0.10920715 C41.59593483 0.2540601 43.94716824 0.69614 46.40258789 1.24291992 C46.40258789 1.57291992 46.40258789 1.90291992 46.40258789 2.24291992 C39.14258789 2.57291992 31.88258789 2.90291992 24.40258789 3.24291992 C32.27681146 7.69211502 32.27681146 7.69211502 40.40258789 10.24291992 C40.09008789 12.18041992 40.09008789 12.18041992 39.40258789 14.24291992 C38.41258789 14.57291992 37.42258789 14.90291992 36.40258789 15.24291992 C35.74258789 14.91291992 35.08258789 14.58291992 34.40258789 14.24291992 C34.40258789 13.25291992 34.40258789 12.26291992 34.40258789 11.24291992 C33.31747925 10.84290771 33.31747925 10.84290771 32.21044922 10.43481445 C29.40762805 9.24505939 27.04942145 7.79268696 24.47680664 6.17260742 C17.80712902 2.48900168 11.7068292 2.35176522 4.21508789 2.36791992 C2.97694336 2.34729492 1.73879883 2.32666992 0.46313477 2.30541992 C-2.55773108 2.25876562 -5.57626343 2.23843798 -8.59741211 2.24291992 C-5.59697257 0.51760236 -3.44925472 -0.00619657 0 0 Z " fill="#555DA7" transform="translate(80.597412109375,120.757080078125)"/>
<path d="M0 0 C2.97 0 5.94 0 9 0 C9 15.18 9 30.36 9 46 C8.67 46 8.34 46 8 46 C7.94465088 45.32420898 7.88930176 44.64841797 7.83227539 43.95214844 C7.57909469 40.88447302 7.3208521 37.81724404 7.0625 34.75 C6.97548828 33.68652344 6.88847656 32.62304688 6.79882812 31.52734375 C6.71181641 30.50253906 6.62480469 29.47773437 6.53515625 28.421875 C6.456604 27.47924805 6.37805176 26.53662109 6.29711914 25.56542969 C6.03387689 23.29250478 5.61768892 21.19924405 5 19 C5.99 18.67 6.98 18.34 8 18 C7.814375 17.01 7.62875 16.02 7.4375 15 C6.82338317 10.82912322 7.34479095 7.14965731 8 3 C6.35 3 4.7 3 3 3 C2.67 12.9 2.34 22.8 2 33 C1.34 32.67 0.68 32.34 0 32 C0 21.44 0 10.88 0 0 Z " fill="#1A2257" transform="translate(54,9)"/>
<path d="M0 0 C1.65 0.33 3.3 0.66 5 1 C5.07541016 2.38058594 5.07541016 2.38058594 5.15234375 3.7890625 C5.69262157 7.17195658 5.69262157 7.17195658 8.50390625 8.8984375 C9.51324219 9.38570312 10.52257812 9.87296875 11.5625 10.375 C12.57441406 10.87773438 13.58632812 11.38046875 14.62890625 11.8984375 C15.41136719 12.26195313 16.19382813 12.62546875 17 13 C16.01 14.485 16.01 14.485 15 16 C12.16533841 14.9161588 9.6303773 13.78438676 7 12.25 C4.09602581 10.65138859 4.09602581 10.65138859 1.4375 11.875 C0.2309375 12.431875 0.2309375 12.431875 -1 13 C-3.67770941 12.68863844 -5.59556732 12.20221634 -8 11 C-8.625 8.9375 -8.625 8.9375 -9 7 C-8.01 6.67 -7.02 6.34 -6 6 C-5.01 5.34 -4.02 4.68 -3 4 C-2.01 3.67 -1.02 3.34 0 3 C0 4.32 0 5.64 0 7 C0.66 7 1.32 7 2 7 C1.34 4.69 0.68 2.38 0 0 Z " fill="#5D52A0" transform="translate(184,72)"/>
<path d="M0 0 C0.33 1.32 0.66 2.64 1 4 C0.34 4 -0.32 4 -1 4 C-1.33 4.99 -1.66 5.98 -2 7 C-2.33 7.33 -2.66 7.66 -3 8 C-3.23701239 10.85877909 -3.42219182 13.69883297 -3.5625 16.5625 C-3.60568359 17.36880859 -3.64886719 18.17511719 -3.69335938 19.00585938 C-3.79975262 21.00368805 -3.90040888 23.0018207 -4 25 C-4.66 24.67 -5.32 24.34 -6 24 C-6 22.02 -6 20.04 -6 18 C-7.65 17.67 -9.3 17.34 -11 17 C-11.33 18.98 -11.66 20.96 -12 23 C-12.33 23 -12.66 23 -13 23 C-13.02696365 21.20841511 -13.04637917 19.41671527 -13.0625 17.625 C-13.07410156 16.62726562 -13.08570312 15.62953125 -13.09765625 14.6015625 C-13 12 -13 12 -12 10 C-11.34 10 -10.68 10 -10 10 C-9.731875 9.071875 -9.46375 8.14375 -9.1875 7.1875 C-7.5511811 2.79527559 -7.5511811 2.79527559 -5 1 C-2.3125 0.3125 -2.3125 0.3125 0 0 Z " fill="#2B2F88" transform="translate(105,40)"/>
<path d="M0 0 C0.804375 0.45375 1.60875 0.9075 2.4375 1.375 C3.365625 1.74625 4.29375 2.1175 5.25 2.5 C5.971875 2.78875 6.69375 3.0775 7.4375 3.375 C7.4375 4.365 7.4375 5.355 7.4375 6.375 C3.21527778 9.375 3.21527778 9.375 0.4375 9.375 C0.7675 11.025 1.0975 12.675 1.4375 14.375 C-1.8625 14.045 -5.1625 13.715 -8.5625 13.375 C-9.08158669 6.79990189 -9.08158669 6.79990189 -8.5625 3.375 C-5.65103311 0.39582458 -4.18136658 -1.01984551 0 0 Z M-2.5625 3.375 C-2.5625 4.365 -2.5625 5.355 -2.5625 6.375 C-1.5725 6.375 -0.5825 6.375 0.4375 6.375 C0.1075 5.385 -0.2225 4.395 -0.5625 3.375 C-1.2225 3.375 -1.8825 3.375 -2.5625 3.375 Z M-5.5625 8.375 C-5.5625 9.365 -5.5625 10.355 -5.5625 11.375 C-4.9025 11.375 -4.2425 11.375 -3.5625 11.375 C-3.8925 10.385 -4.2225 9.395 -4.5625 8.375 C-4.8925 8.375 -5.2225 8.375 -5.5625 8.375 Z " fill="#7A3484" transform="translate(182.5625,39.625)"/>
<path d="M0 0 C1.70962311 0.11190492 3.42271769 0.17564115 5.13574219 0.20532227 C6.15649841 0.22526749 7.17725464 0.24521271 8.22894287 0.26576233 C9.32386047 0.28247482 10.41877808 0.29918732 11.546875 0.31640625 C12.6732135 0.33718735 13.799552 0.35796844 14.96002197 0.37937927 C18.55661949 0.44474333 22.15328977 0.50369885 25.75 0.5625 C28.1888096 0.6056977 30.62761184 0.6493124 33.06640625 0.69335938 C39.044194 0.8004113 45.02205407 0.90220217 51 1 C47.82130192 3.11913206 46.98162577 3.25771461 43.33251953 3.30297852 C42.38788849 3.31962051 41.44325745 3.33626251 40.47000122 3.35340881 C39.45122894 3.36182297 38.43245667 3.37023712 37.3828125 3.37890625 C36.33350555 3.39590073 35.28419861 3.4128952 34.20309448 3.43040466 C30.84379115 3.48359642 27.48449953 3.52383814 24.125 3.5625 C20.77270676 3.60648893 17.42050731 3.6532876 14.06832886 3.70530701 C11.981588 3.73714298 9.89476513 3.76407022 7.80789185 3.78553772 C6.85695648 3.79902756 5.90602112 3.8125174 4.92626953 3.82641602 C4.09370636 3.83592789 3.26114319 3.84543976 2.40335083 3.85523987 C-0.13910989 4.00837895 -2.51660005 4.44584962 -5 5 C-5.33 3.35 -5.66 1.7 -6 0 C-3.44417931 -1.27791035 -2.71090933 -0.71023956 0 0 Z " fill="#6D79B8" transform="translate(10,128)"/>
<path d="M0 0 C0.72832031 -0.01224609 1.45664062 -0.02449219 2.20703125 -0.03710938 C4.09782978 -0.04235188 5.98815581 0.06516615 7.875 0.1875 C9.875 2.1875 9.875 2.1875 10.875 4.1875 C7.23063236 6.61707843 5.39572452 6.45595889 1.0625 6.4375 C-0.74154297 6.44523437 -0.74154297 6.44523437 -2.58203125 6.453125 C-6.08881355 6.19021299 -8.85721185 5.44857598 -12.125 4.1875 C-12.125 3.1975 -12.125 2.2075 -12.125 1.1875 C-8.15575579 -0.11133646 -4.12870441 0.00369294 0 0 Z " fill="#383BCA" transform="translate(33.125,82.8125)"/>
<path d="M0 0 C0.99 0 1.98 0 3 0 C3 0.99 3 1.98 3 3 C3.66 3 4.32 3 5 3 C5.06058594 3.72445312 5.12117187 4.44890625 5.18359375 5.1953125 C5.61483433 10.17116533 6.07047641 15.08680391 7 20 C6.34 19.01 5.68 18.02 5 17 C4.34 16.34 3.68 15.68 3 15 C2.01 15.33 1.02 15.66 0 16 C0 18.64 0 21.28 0 24 C-2.50094494 20.24858259 -2.26769802 18.16067558 -2.25 13.6875 C-2.25515625 12.39199219 -2.2603125 11.09648438 -2.265625 9.76171875 C-2.01067704 6.15120569 -1.31094654 3.35539888 0 0 Z " fill="#2E3199" transform="translate(9,50)"/>
<path d="M0 0 C0.66 0 1.32 0 2 0 C2.42056594 3.43462183 2.63981991 5.99485082 0.734375 8.98828125 C-4.24672821 14.82777846 -4.24672821 14.82777846 -8.42578125 15.23828125 C-16.22816964 15.43888393 -16.22816964 15.43888393 -20.1875 13.1875 C-22 11 -22 11 -22 8 C-19.80906091 8.46948695 -18.1482911 8.90467001 -16.25 10.125 C-12.73048162 11.49370159 -9.50175393 11.20199093 -6 10 C-2.76622523 7.42407647 -0.48245681 4.1812924 0 0 Z " fill="#4E6EAB" transform="translate(220,61)"/>
<path d="M0 0 C1.38125018 2.76250036 1.19079306 4.94731099 1 8 C-1 10 -1 10 -4.4375 10.3125 C-8 10 -8 10 -10 8.875 C-11 7 -11 7 -10.9375 3.9375 C-10 1 -10 1 -8.3125 -0.4375 C-5.24704003 -1.18315243 -3.02913271 -0.80776872 0 0 Z " fill="#1D2657" transform="translate(83,13)"/>
<path d="M0 0 C1.8125 1.0625 1.8125 1.0625 3 3 C3.1875 6.6875 3.1875 6.6875 3 10 C2.34 10 1.68 10 1 10 C0.67 10.66 0.34 11.32 0 12 C-6.875 10.125 -6.875 10.125 -8 9 C-8.25 5.5625 -8.25 5.5625 -8 2 C-4.76746204 -0.15502531 -3.74849077 -0.46856135 0 0 Z " fill="#14356E" transform="translate(166,12)"/>
<path d="M0 0 C0.66 0 1.32 0 2 0 C2.73080266 1.97746603 3.39421747 3.98072489 4 6 C3.67 6.66 3.34 7.32 3 8 C0.69 8.33 -1.62 8.66 -4 9 C-3.67 13.95 -3.34 18.9 -3 24 C-4.98 24 -6.96 24 -9 24 C-8.67 19.05 -8.34 14.1 -8 9 C-8.99 8.67 -9.98 8.34 -11 8 C-8.13822943 6.56911472 -6.06624227 7.40008303 -3 8 C-3.33 7.01 -3.66 6.02 -4 5 C-3.34 4.67 -2.68 4.34 -2 4 C-0.86649466 1.98330173 -0.86649466 1.98330173 0 0 Z " fill="#703F8A" transform="translate(187,46)"/>
<path d="M0 0 C0.99 0.33 1.98 0.66 3 1 C3 1.99 3 2.98 3 4 C4.32 3.67 5.64 3.34 7 3 C7.433125 3.763125 7.86625 4.52625 8.3125 5.3125 C9.80480251 7.96730523 9.80480251 7.96730523 11.6875 9.5 C13 11 13 11 13.1875 13.6875 C13.125625 14.450625 13.06375 15.21375 13 16 C7.66666667 17.33333333 7.66666667 17.33333333 4.75 15.875 C2.73551694 13.71662529 1.94926099 11.77476289 1 9 C0.67 8.67 0.34 8.34 0 8 C-0.14115161 5.32941149 -0.04247107 2.67567762 0 0 Z M2 7 C2 7.66 2 8.32 2 9 C2.99 9.33 3.98 9.66 5 10 C5 9.01 5 8.02 5 7 C4.01 7 3.02 7 2 7 Z M7 10 C7.33 10.99 7.66 11.98 8 13 C8.66 12.67 9.32 12.34 10 12 C9.01 11.34 8.02 10.68 7 10 Z M8 14 C8.66 14.66 9.32 15.32 10 16 C10 15.34 10 14.68 10 14 C9.34 14 8.68 14 8 14 Z " fill="#486DA0" transform="translate(65,14)"/>
<path d="M0 0 C2.475 0.99 2.475 0.99 5 2 C5 4.97 5 7.94 5 11 C3.02 11.66 1.04 12.32 -1 13 C-1.66 12.34 -2.32 11.68 -3 11 C-5.32275177 10.59952556 -7.65739357 10.2602896 -10 10 C-9.67 7.36 -9.34 4.72 -9 2 C-8.01 1.67 -7.02 1.34 -6 1 C-5 4 -5 4 -5 8 C-4.34 8.33 -3.68 8.66 -3 9 C-3 7.68 -3 6.36 -3 5 C-2.01 4.67 -1.02 4.34 0 4 C0 2.68 0 1.36 0 0 Z M1 6 C0.67 6.66 0.34 7.32 0 8 C0.99 8 1.98 8 3 8 C3 7.34 3 6.68 3 6 C2.34 6 1.68 6 1 6 Z " fill="#409CCE" transform="translate(238,71)"/>
<path d="M0 0 C2.97 0 5.94 0 9 0 C9 8.25 9 16.5 9 25 C7 23 7 23 6.77294922 20.84521484 C6.78342285 19.97590332 6.79389648 19.1065918 6.8046875 18.2109375 C6.81113281 17.26992188 6.81757812 16.32890625 6.82421875 15.359375 C6.84097656 14.37453125 6.85773438 13.3896875 6.875 12.375 C6.88402344 11.38242187 6.89304687 10.38984375 6.90234375 9.3671875 C6.92595884 6.91121866 6.95889201 4.45572832 7 2 C6.01 2 5.02 2 4 2 C1.6535374 8.57200296 1.56411276 15.00730516 1.375 21.9375 C1.33632812 23.09830078 1.29765625 24.25910156 1.2578125 25.45507812 C1.16404613 28.30323169 1.07834083 31.15138738 1 34 C0.67 34 0.34 34 0 34 C0 22.78 0 11.56 0 0 Z " fill="#2C2D71" transform="translate(74,34)"/>
<path d="M0 0 C4.27878027 2.03751441 8.11282869 4.31600076 12 7 C11.44271087 10.34373475 10.64826111 13.03312999 9 16 C8.2575 15.05125 7.515 14.1025 6.75 13.125 C4.68012646 10.62121529 2.98119247 9.33639662 0 8 C-2 5 -2 5 -1.6875 2.875 C-1 1 -1 1 0 0 Z " fill="#262B75" transform="translate(42,34)"/>
<path d="M0 0 C1.65 0 3.3 0 5 0 C5 1.65 5 3.3 5 5 C3.35 5 1.7 5 0 5 C0 4.34 0 3.68 0 3 C-22.44 3.33 -44.88 3.66 -68 4 C-68 3.34 -68 2.68 -68 2 C-45.56 2 -23.12 2 0 2 C0 1.34 0 0.68 0 0 Z " fill="#545695" transform="translate(262,102)"/>
<path d="M0 0 C10.13759175 -0.81049274 16.37103146 -0.53081966 25.02734375 5.375 C30.0736127 8.13353861 35.34971574 8.06379353 41 8 C38.1338438 10.8661562 35.5404916 10.76883358 31.6015625 11.109375 C27.51691604 10.93764812 25.37364386 9.24909591 22 7 C19.22861403 6.22514168 19.22861403 6.22514168 17 6 C17 5.01 17 4.02 17 3 C15.94039062 2.95101562 14.88078125 2.90203125 13.7890625 2.8515625 C12.40101503 2.77653291 11.01299549 2.70098515 9.625 2.625 C8.92632812 2.5940625 8.22765625 2.563125 7.5078125 2.53125 C2.2265625 2.2265625 2.2265625 2.2265625 0 0 Z " fill="#5157D4" transform="translate(105,116)"/>
<path d="M0 0 C3.875 1.875 3.875 1.875 5 3 C5.47257384 10.32489451 5.47257384 10.32489451 3.6875 12.875 C-1 16 -1 16 -5 16 C-6.75 14 -6.75 14 -8 12 C-7.01 11.67 -6.02 11.34 -5 11 C-4.67 10.34 -4.34 9.68 -4 9 C-3.34 9 -2.68 9 -2 9 C-2 9.66 -2 10.32 -2 11 C-1.34 10.67 -0.68 10.34 0 10 C0.33 9.01 0.66 8.02 1 7 C0.34 6.67 -0.32 6.34 -1 6 C-0.67 4.02 -0.34 2.04 0 0 Z " fill="#515FA4" transform="translate(212,55)"/>
<path d="M0 0 C0.66 0 1.32 0 2 0 C1.67 1.65 1.34 3.3 1 5 C2.98 5 4.96 5 7 5 C7.35050464 10.841744 7.16727335 14.8531808 4 20 C3.67 18.68 3.34 17.36 3 16 C3.66 16 4.32 16 5 16 C5 14.68 5 13.36 5 12 C4.67 12.99 4.34 13.98 4 15 C2 14 2 14 1 11 C0.01 12.98 -0.98 14.96 -2 17 C-2.66 16.67 -3.32 16.34 -4 16 C-3.34 14.02 -2.68 12.04 -2 10 C-1.34 10 -0.68 10 0 10 C0 6.7 0 3.4 0 0 Z " fill="#383ACA" transform="translate(140,80)"/>
<path d="M0 0 C2.58187674 0.43031279 4.65914344 0.80208329 6.9375 2.125 C10.70176124 3.72195931 14.27374135 2.24208622 18 1 C19.82421875 1.99609375 19.82421875 1.99609375 21.6875 3.4375 C22.31011719 3.91058594 22.93273437 4.38367187 23.57421875 4.87109375 C24.27998047 5.42990234 24.27998047 5.42990234 25 6 C24.67 6.99 24.34 7.98 24 9 C23.34 8.34 22.68 7.68 22 7 C21.67 8.32 21.34 9.64 21 11 C20.34 11 19.68 11 19 11 C18.67 9.35 18.34 7.7 18 6 C16.54176788 5.9729957 15.08339325 5.95360213 13.625 5.9375 C12.40683594 5.92009766 12.40683594 5.92009766 11.1640625 5.90234375 C8.95062858 5.85533666 8.95062858 5.85533666 7 7 C4.5249829 5.88568235 2.32116581 4.41849022 0 3 C0 2.01 0 1.02 0 0 Z " fill="#545F9D" transform="translate(219,38)"/>
<path d="M0 0 C0.99 0.66 1.98 1.32 3 2 C3.33 1.67 3.66 1.34 4 1 C7.06481021 0.8386942 9.05549278 1.01849759 12 2 C12 2.66 12 3.32 12 4 C12.99 4.33 13.98 4.66 15 5 C14.01 6.485 14.01 6.485 13 8 C13 7.34 13 6.68 13 6 C8.545 6.495 8.545 6.495 4 7 C3.67 7.99 3.34 8.98 3 10 C1.35 10.33 -0.3 10.66 -2 11 C-2.66 9.02 -3.32 7.04 -4 5 C-3.34 4.34 -2.68 3.68 -2 3 C-1.34 3.33 -0.68 3.66 0 4 C0 2.68 0 1.36 0 0 Z " fill="#355A89" transform="translate(70,7)"/>
<path d="M0 0 C1.65 0.33 3.3 0.66 5 1 C4.67 2.65 4.34 4.3 4 6 C3.34 6 2.68 6 2 6 C2 10.62 2 15.24 2 20 C1.67 20 1.34 20 1 20 C1 16.37 1 12.74 1 9 C0.34 9 -0.32 9 -1 9 C-1 8.01 -1 7.02 -1 6 C-1.99 6 -2.98 6 -4 6 C-4.66 11.61 -5.32 17.22 -6 23 C-6.33 23 -6.66 23 -7 23 C-7.05451714 20.95863605 -7.09302485 18.91684144 -7.125 16.875 C-7.14820313 15.73804688 -7.17140625 14.60109375 -7.1953125 13.4296875 C-6.99490137 9.91046799 -6.38721292 7.23360782 -5 4 C-2.9375 3.3125 -2.9375 3.3125 -1 3 C-0.67 2.01 -0.34 1.02 0 0 Z " fill="#2A2F83" transform="translate(13,44)"/>
<path d="M0 0 C1.9375 0.6875 1.9375 0.6875 4 2 C5.51899003 6.08958854 4.74406776 9.78361603 4 14 C4.99 14 5.98 14 7 14 C7.66 15.65 8.32 17.3 9 19 C4.57337292 17.86172447 2.41271973 15.76188675 -0.05859375 12.08203125 C-1.68157459 8.49261719 -1.57841349 4.85058124 -1 1 C-0.67 0.67 -0.34 0.34 0 0 Z " fill="#3337B0" transform="translate(96,66)"/>
<path d="M0 0 C0.66 0.33 1.32 0.66 2 1 C2 1.99 2 2.98 2 4 C1.175 4.721875 0.35 5.44375 -0.5 6.1875 C-3.10338461 9.11630769 -3.36165341 9.48805464 -3.375 13.125 C-3.15441723 16.90904191 -3.15441723 16.90904191 -2 20 C-2.66 20 -3.32 20 -4 20 C-4.33 20.66 -4.66 21.32 -5 22 C-7.3992539 18.40111915 -7.78787202 16.31326894 -8 12 C-7.06695559 7.49448826 -5.70114693 4.65222971 -2.3125 1.5 C-1.549375 1.005 -0.78625 0.51 0 0 Z " fill="#594D90" transform="translate(202,49)"/>
<path d="M0 0 C0.53625 0.53625 1.0725 1.0725 1.625 1.625 C1.295 2.615 0.965 3.605 0.625 4.625 C1.285 4.625 1.945 4.625 2.625 4.625 C2.625 3.965 2.625 3.305 2.625 2.625 C3.285 2.625 3.945 2.625 4.625 2.625 C3.25516497 5.78615776 2.6359362 6.6177092 -0.375 8.625 C-2.85546875 9.0390625 -2.85546875 9.0390625 -5.5625 9.25 C-6.46355469 9.32476562 -7.36460938 9.39953125 -8.29296875 9.4765625 C-8.98003906 9.52554687 -9.66710937 9.57453125 -10.375 9.625 C-8.74087557 7.91659719 -7.50593906 6.69046953 -5.375 5.625 C-6.365 5.295 -7.355 4.965 -8.375 4.625 C-8.375 3.305 -8.375 1.985 -8.375 0.625 C-2.95961538 -1.71346154 -2.95961538 -1.71346154 0 0 Z M-1.375 4.625 C-1.705 5.285 -2.035 5.945 -2.375 6.625 C-1.715 6.625 -1.055 6.625 -0.375 6.625 C-0.705 5.965 -1.035 5.305 -1.375 4.625 Z " fill="#3B68A4" transform="translate(85.375,22.375)"/>
<path d="M0 0 C2.3125 -0.1875 2.3125 -0.1875 5 0 C6.375 1.25 6.375 1.25 8 3 C12.62451704 5.93478966 16.69145898 7.69994914 22 9 C21.6875 10.9375 21.6875 10.9375 21 13 C20.01 13.33 19.02 13.66 18 14 C17.34 13.67 16.68 13.34 16 13 C16 12.01 16 11.02 16 10 C15.29488281 9.73445312 14.58976562 9.46890625 13.86328125 9.1953125 C10.84432214 7.93501033 8.04814924 6.46042006 5.1875 4.875 C4.21167969 4.33617188 3.23585938 3.79734375 2.23046875 3.2421875 C1.49441406 2.83226563 0.75835937 2.42234375 0 2 C0 1.34 0 0.68 0 0 Z " fill="#5B65C5" transform="translate(99,122)"/>
<path d="M0 0 C1.0209375 0.7425 1.0209375 0.7425 2.0625 1.5 C1.7325 3.15 1.4025 4.8 1.0625 6.5 C0.4025 5.51 -0.2575 4.52 -0.9375 3.5 C-3.50032742 2.77034634 -3.50032742 2.77034634 -5.9375 2.5 C-5.6075 3.49 -5.2775 4.48 -4.9375 5.5 C-9.8125 4.625 -9.8125 4.625 -10.9375 3.5 C-12.61292976 3.78604898 -14.28135343 4.11781233 -15.9375 4.5 C-15.75 2.625 -15.75 2.625 -14.9375 0.5 C-10.12103092 -2.33321711 -4.95173747 -2.52854679 0 0 Z " fill="#5077A4" transform="translate(169.9375,6.5)"/>
<path d="M0 0 C0 0.66 0 1.32 0 2 C-1.64453125 3.078125 -1.64453125 3.078125 -3.8125 4.25 C-7.77783023 6.59568831 -9.15831541 8.7350462 -11 13 C-11.99 13.33 -12.98 13.66 -14 14 C-14.33 11.69 -14.66 9.38 -15 7 C-14.01 7 -13.02 7 -12 7 C-11.71125 6.38125 -11.4225 5.7625 -11.125 5.125 C-10 3 -10 3 -8 1 C-5.22184257 0.28765194 -2.87628285 0 0 0 Z " fill="#6B4993" transform="translate(205,45)"/>
<path d="M0 0 C0.33 0 0.66 0 1 0 C1 13.2 1 26.4 1 40 C0.67 40 0.34 40 0 40 C-0.05534912 39.32420898 -0.11069824 38.64841797 -0.16772461 37.95214844 C-0.42090531 34.88447302 -0.6791479 31.81724404 -0.9375 28.75 C-1.06801758 27.15478516 -1.06801758 27.15478516 -1.20117188 25.52734375 C-1.28818359 24.50253906 -1.37519531 23.47773437 -1.46484375 22.421875 C-1.543396 21.47924805 -1.62194824 20.53662109 -1.70288086 19.56542969 C-1.96612311 17.29250478 -2.38231108 15.19924405 -3 13 C-2.01 12.67 -1.02 12.34 0 12 C-0.2784375 10.4221875 -0.2784375 10.4221875 -0.5625 8.8125 C-0.95079331 5.42880118 -0.88247485 3.23574112 0 0 Z " fill="#252A5A" transform="translate(62,15)"/>
<path d="M0 0 C2 0 2 0 3.9375 1.875 C4.618125 2.57625 5.29875 3.2775 6 4 C6.99 4.66 7.98 5.32 9 6 C9.29296875 8.1640625 9.29296875 8.1640625 9.1875 10.625 C9.16042969 11.44226563 9.13335937 12.25953125 9.10546875 13.1015625 C9.07066406 13.72804688 9.03585938 14.35453125 9 15 C8.67 15 8.34 15 8 15 C7.9175 13.72125 7.835 12.4425 7.75 11.125 C7.54130069 8.94666582 7.54130069 8.94666582 7 7 C5.07935207 5.4100567 5.07935207 5.4100567 3 5 C2.67 5.66 2.34 6.32 2 7 C1.01 7.495 1.01 7.495 0 8 C1.32 8.33 2.64 8.66 4 9 C2.68 9.33 1.36 9.66 0 10 C-0.33 11.32 -0.66 12.64 -1 14 C-2.49821059 10.62902617 -3 8.79557881 -3 5 C-2.34 5 -1.68 5 -1 5 C-0.67 3.35 -0.34 1.7 0 0 Z " fill="#4587B7" transform="translate(235,66)"/>
<path d="M0 0 C3.02419525 0.58803797 6.01758453 1.22678118 9 2 C7.6875 3.5 7.6875 3.5 6 5 C5.01 5 4.02 5 3 5 C3 6.98 3 8.96 3 11 C2.01 11 1.02 11 0 11 C-0.33 11.66 -0.66 12.32 -1 13 C-2 12 -2 12 -2.1875 8.1875 C-2.1585691 4.96459799 -1.82970185 2.74455277 0 0 Z " fill="#3E699D" transform="translate(152,10)"/>
<path d="M0 0 C1.65 0 3.3 0 5 0 C5 0.66 5 1.32 5 2 C4.34 2 3.68 2 3 2 C2.67 3.65 2.34 5.3 2 7 C3.32 6.34 4.64 5.68 6 5 C6 4.01 6 3.02 6 2 C6.66 2 7.32 2 8 2 C8.66 3.65 9.32 5.3 10 7 C4.375 11 4.375 11 1 11 C0.34 9.35 -0.32 7.7 -1 6 C-0.34 6 0.32 6 1 6 C0.01 4.68 -0.98 3.36 -2 2 C-1.34 2 -0.68 2 0 2 C0 1.34 0 0.68 0 0 Z " fill="#4483B2" transform="translate(206,89)"/>
<path d="M0 0 C-0.33 0.66 -0.66 1.32 -1 2 C-1.99 1.505 -2.98 1.01 -4 0.5 C-10.87179576 -2.41740222 -17.10393863 -0.97030325 -24 1 C-23.67 1.66 -23.34 2.32 -23 3 C-26.3 3.66 -29.6 4.32 -33 5 C-25.04284351 -4.68697312 -10.57944128 -5.90480444 0 0 Z " fill="#252860" transform="translate(132,35)"/>
<path d="M0 0 C2.875 0.5625 2.875 0.5625 6 2 C7.375 5.625 7.375 5.625 8 9 C5.69 9 3.38 9 1 9 C-0.61949011 6.42786866 -1.04408751 5.32330841 -0.625 2.25 C-0.41875 1.5075 -0.2125 0.765 0 0 Z " fill="#3D41E3" transform="translate(91,96)"/>
<path d="M0 0 C0.66 0 1.32 0 2 0 C2 5.28 2 10.56 2 16 C-0.64 16 -3.28 16 -6 16 C-5.67 13.03 -5.34 10.06 -5 7 C-4.01 7 -3.02 7 -2 7 C-2.33 9.31 -2.66 11.62 -3 14 C-2.01 14 -1.02 14 0 14 C0 9.38 0 4.76 0 0 Z " fill="#383BBD" transform="translate(80,72)"/>
<path d="M0 0 C0.33 0.99 0.66 1.98 1 3 C0.34 3 -0.32 3 -1 3 C-0.835 4.258125 -0.67 5.51625 -0.5 6.8125 C1.12541722 21.70037949 1.12541722 21.70037949 -2 27 C-2.66 27 -3.32 27 -4 27 C-3.83242187 26.38511719 -3.66484375 25.77023438 -3.4921875 25.13671875 C-2.65592081 19.80717785 -3.04043847 14.42103934 -3.21484375 9.04101562 C-3.22902344 8.16767578 -3.24320313 7.29433594 -3.2578125 6.39453125 C-3.2798877 5.59893799 -3.30196289 4.80334473 -3.32470703 3.98364258 C-3.21755371 3.32904053 -3.11040039 2.67443848 -3 2 C-2.01 1.34 -1.02 0.68 0 0 Z " fill="#2E308D" transform="translate(141,44)"/>
<path d="M0 0 C6.75 5.625 6.75 5.625 9 9 C8.01 9 7.02 9 6 9 C5.67 9.66 5.34 10.32 5 11 C4.6596875 9.7934375 4.6596875 9.7934375 4.3125 8.5625 C3.879375 7.716875 3.44625 6.87125 3 6 C0.45224694 5.10613836 0.45224694 5.10613836 -2 5 C-1.67 7.31 -1.34 9.62 -1 12 C-2.65 10.35 -4.3 8.7 -6 7 C-4.02 4.69 -2.04 2.38 0 0 Z " fill="#3E3EC5" transform="translate(93,92)"/>
<path d="M0 0 C0.66 0.33 1.32 0.66 2 1 C1.01 2.32 0.02 3.64 -1 5 C-0.01 5 0.98 5 2 5 C2.33 3.68 2.66 2.36 3 1 C4.65 1.33 6.3 1.66 8 2 C6.02 2.99 6.02 2.99 4 4 C5.65 4 7.3 4 9 4 C9 4.99 9 5.98 9 7 C8.34 6.67 7.68 6.34 7 6 C4.64018187 6.93578995 2.30368736 7.93347808 0 9 C0 9.99 0 10.98 0 12 C-0.66 12 -1.32 12 -2 12 C-2 8.37 -2 4.74 -2 1 C-1.34 0.67 -0.68 0.34 0 0 Z " fill="#573D91" transform="translate(176,70)"/>
<path d="M0 0 C0.66 0 1.32 0 2 0 C2 1.32 2 2.64 2 4 C2.99 3.67 3.98 3.34 5 3 C5.33 4.32 5.66 5.64 6 7 C5.01 7 4.02 7 3 7 C3 7.66 3 8.32 3 9 C-0.34373475 8.44271087 -3.03312999 7.64826111 -6 6 C-3 4 -3 4 -1 4 C-0.67 2.68 -0.34 1.36 0 0 Z " fill="#4A75AB" transform="translate(170,18)"/>
<path d="M0 0 C0.33 0 0.66 0 1 0 C2.32378398 10.30660383 2.09139066 20.63223764 2 31 C-0.36085069 27.45872397 -0.48069892 24.67357117 -0.6875 20.5625 C-0.7280249 19.85544922 -0.7685498 19.14839844 -0.81030273 18.41992188 C-1.10718969 12.2223193 -0.75825229 6.15934168 0 0 Z " fill="#37399A" transform="translate(61,57)"/>
<path d="M0 0 C2.92368016 0.70917642 5.8116565 1.49085638 8.6875 2.375 C9.47511719 2.60960938 10.26273438 2.84421875 11.07421875 3.0859375 C11.70972656 3.38757813 12.34523437 3.68921875 13 4 C13.33 4.99 13.66 5.98 14 7 C9.3396295 7.36551926 6.04857135 7.62058305 1.9375 5.1875 C0 3 0 3 0 0 Z " fill="#525C99" transform="translate(198,69)"/>
<path d="M0 0 C1.32 0 2.64 0 4 0 C4 4.29 4 8.58 4 13 C3.67 12.34 3.34 11.68 3 11 C2.34 11 1.68 11 1 11 C0.67 11.99 0.34 12.98 0 14 C0 9.38 0 4.76 0 0 Z " fill="#3E73AD" transform="translate(234,55)"/>
<path d="M0 0 C1.134375 0.020625 2.26875 0.04125 3.4375 0.0625 C2.7775 2.3725 2.1175 4.6825 1.4375 7.0625 C-0.22861905 7.105221 -1.89632885 7.10313832 -3.5625 7.0625 C-4.5625 6.0625 -4.5625 6.0625 -4.6875 3.5625 C-4.4904197 -0.37910609 -4.10054684 0.07193942 0 0 Z " fill="#1E234F" transform="translate(164.5625,14.9375)"/>
<path d="M0 0 C1.88428711 0.02707031 1.88428711 0.02707031 3.80664062 0.0546875 C6.89271916 0.10162406 9.97720781 0.16727586 13.0625 0.25 C13.0625 0.58 13.0625 0.91 13.0625 1.25 C12.03479492 1.26401855 12.03479492 1.26401855 10.98632812 1.27832031 C7.84435565 1.3324191 4.70380933 1.41598824 1.5625 1.5 C0.48484375 1.51417969 -0.5928125 1.52835937 -1.703125 1.54296875 C-8.5303461 1.75111573 -13.07865717 2.69487692 -18.9375 6.25 C-19.5975 5.59 -20.2575 4.93 -20.9375 4.25 C-14.31907541 -0.74577963 -8.05108797 -0.21953675 0 0 Z " fill="#595DB9" transform="translate(177.9375,103.75)"/>
<path d="M0 0 C3.96 1.98 7.92 3.96 12 6 C11.01 7.485 11.01 7.485 10 9 C6.2089881 7.55049545 2.6125362 5.84827434 -1 4 C-0.67 2.68 -0.34 1.36 0 0 Z " fill="#52639D" transform="translate(189,79)"/>
<path d="M0 0 C4.17645661 -0.34803805 5.82586157 0.33781938 9 3 C9.721875 3.33 10.44375 3.66 11.1875 4 C13 5 13 5 14 8 C7.6682658 7.74156187 4.31723896 5.61905201 0 1 C0 0.67 0 0.34 0 0 Z " fill="#5264A1" transform="translate(193,73)"/>
<path d="M0 0 C3.42156094 1.06186374 4.03200161 2.06057448 5.75 5.3125 C6.84911426 8.55488708 7.30531083 10.64158092 7 14 C6.67 12.68 6.34 11.36 6 10 C5.34 10 4.68 10 4 10 C3.67 11.32 3.34 12.64 3 14 C0.88838269 4.58997722 0.88838269 4.58997722 0 0 Z " fill="#52609C" transform="translate(216,51)"/>
<path d="M0 0 C0.66 0.99 1.32 1.98 2 3 C2.66 2.67 3.32 2.34 4 2 C4.33 5.3 4.66 8.6 5 12 C3.35 11.67 1.7 11.34 0 11 C-1.125 3.375 -1.125 3.375 0 0 Z " fill="#373AC4" transform="translate(57,76)"/>
<path d="M0 0 C0.99 0.33 1.98 0.66 3 1 C1.15741754 2.92863714 -0.34878977 3.92009594 -3.01757812 4.24755859 C-5.43427459 4.29505495 -7.83398212 4.26111304 -10.25 4.1875 C-11.09046875 4.17396484 -11.9309375 4.16042969 -12.796875 4.14648438 C-14.86485938 4.11123464 -16.93251271 4.0574302 -19 4 C-16.17290056 1.17290056 -13.29397824 1.58287674 -9.5 1.4375 C-4.60045716 1.39826405 -4.60045716 1.39826405 0 0 Z " fill="#6973CF" transform="translate(163,122)"/>
<path d="M0 0 C0.99 0.66 1.98 1.32 3 2 C2.01 2.33 1.02 2.66 0 3 C-0.33 3.99 -0.66 4.98 -1 6 C-1.66 6 -2.32 6 -3 6 C-2.01 8.64 -1.02 11.28 0 14 C-2.475 13.01 -2.475 13.01 -5 12 C-5.28780586 8.94925785 -5.45787911 6.03816258 -5 3 C-2.5 0.9375 -2.5 0.9375 0 0 Z " fill="#4B7AB0" transform="translate(207,85)"/>
<path d="M0 0 C0.33 0 0.66 0 1 0 C1.33 4.95 1.66 9.9 2 15 C0.02 15 -1.96 15 -4 15 C-3.67 10.71 -3.34 6.42 -3 2 C-2.67 2 -2.34 2 -2 2 C-1.67 4.31 -1.34 6.62 -1 9 C-0.67 6.03 -0.34 3.06 0 0 Z " fill="#604081" transform="translate(182,55)"/>
<path d="M0 0 C0.99 0.33 1.98 0.66 3 1 C3 1.99 3 2.98 3 4 C4.32 3.67 5.64 3.34 7 3 C7.33 4.65 7.66 6.3 8 8 C5.03 7.505 5.03 7.505 2 7 C1.67 7.66 1.34 8.32 1 9 C0 8 0 8 -0.09765625 6.15234375 C-0.06510417 4.1015625 -0.03255208 2.05078125 0 0 Z " fill="#52719C" transform="translate(65,14)"/>
<path d="M0 0 C1.65 0 3.3 0 5 0 C5 1.65 5 3.3 5 5 C3.35 5 1.7 5 0 5 C0 4.34 0 3.68 0 3 C-4.62 3 -9.24 3 -14 3 C-14 2.67 -14 2.34 -14 2 C-9.38 2 -4.76 2 0 2 C0 1.34 0 0.68 0 0 Z " fill="#595ECF" transform="translate(262,102)"/>
<path d="M0 0 C0.33 0 0.66 0 1 0 C1 2.64 1 5.28 1 8 C3.31 8.33 5.62 8.66 8 9 C8 9.99 8 10.98 8 12 C5.36 12 2.72 12 0 12 C0 8.04 0 4.08 0 0 Z " fill="#373DC0" transform="translate(159,76)"/>
<path d="M0 0 C0.33 0.99 0.66 1.98 1 3 C0.34 3.66 -0.32 4.32 -1 5 C-1.66 4.67 -2.32 4.34 -3 4 C-3 5.32 -3 6.64 -3 8 C-2.01 8.66 -1.02 9.32 0 10 C-4.75 9.125 -4.75 9.125 -7 8 C-7.625 5.9375 -7.625 5.9375 -8 4 C-7.01 3.67 -6.02 3.34 -5 3 C-4.01 2.34 -3.02 1.68 -2 1 C-1.34 0.67 -0.68 0.34 0 0 Z " fill="#594A93" transform="translate(183,75)"/>
<path d="M0 0 C6.02770138 0.47587116 10.76678289 3.19722957 16 6 C15.67 6.66 15.34 7.32 15 8 C11.34435091 7.31238981 8.48132728 5.74550455 5.25 3.9375 C4.26515625 3.38964844 3.2803125 2.84179688 2.265625 2.27734375 C1.51796875 1.85582031 0.7703125 1.43429688 0 1 C0 0.67 0 0.34 0 0 Z " fill="#6165B8" transform="translate(136,127)"/>
<path d="M0 0 C0.64453125 1.828125 0.64453125 1.828125 1 4 C-1.3125 6.75 -1.3125 6.75 -4 9 C-4.66 9 -5.32 9 -6 9 C-6 9.66 -6 10.32 -6 11 C-6.99 11 -7.98 11 -9 11 C-9.33 11.66 -9.66 12.32 -10 13 C-10.66 12.34 -11.32 11.68 -12 11 C-10.948125 10.484375 -9.89625 9.96875 -8.8125 9.4375 C-4.57856093 7.05375788 -2.579131 4.06408521 0 0 Z " fill="#3435A6" transform="translate(53,70)"/>
<path d="M0 0 C0.66 0.33 1.32 0.66 2 1 C1.979375 1.94875 1.95875 2.8975 1.9375 3.875 C1.77448174 6.90666283 1.77448174 6.90666283 3 9 C1.02 9 -0.96 9 -3 9 C-2.4140625 2.84765625 -2.4140625 2.84765625 -2 1 C-1.34 0.67 -0.68 0.34 0 0 Z " fill="#448DC9" transform="translate(231,72)"/>
<path d="M0 0 C1.65 0.33 3.3 0.66 5 1 C4.67 2.65 4.34 4.3 4 6 C2.35 5.67 0.7 5.34 -1 5 C-0.67 3.35 -0.34 1.7 0 0 Z " fill="#6D69D3" transform="translate(203,131)"/>
<path d="M0 0 C0.33 0 0.66 0 1 0 C1.28875 0.969375 1.5775 1.93875 1.875 2.9375 C2.64214682 6.10664203 2.64214682 6.10664203 5 7 C4.67 7.66 4.34 8.32 4 9 C2.68 9 1.36 9 0 9 C-2.01495907 9.61998741 -4.0187415 10.27954236 -6 11 C-5.67 10.01 -5.34 9.02 -5 8 C-3.35 7.67 -1.7 7.34 0 7 C-0.185625 6.030625 -0.37125 5.06125 -0.5625 4.0625 C-0.706875 3.051875 -0.85125 2.04125 -1 1 C-0.67 0.67 -0.34 0.34 0 0 Z " fill="#624D89" transform="translate(216,30)"/>
<path d="M0 0 C-0.33 1.65 -0.66 3.3 -1 5 C-2.65 4.67 -4.3 4.34 -6 4 C-6 2.68 -6 1.36 -6 0 C-3.50907189 -1.24546405 -2.58919267 -0.7767578 0 0 Z " fill="#6264D1" transform="translate(10,128)"/>
<path d="M0 0 C1.2065625 0.0309375 1.2065625 0.0309375 2.4375 0.0625 C2.78800464 5.904244 2.60477335 9.9156808 -0.5625 15.0625 C-0.8925 13.7425 -1.2225 12.4225 -1.5625 11.0625 C-0.9025 11.0625 -0.2425 11.0625 0.4375 11.0625 C0.4375 8.0925 0.4375 5.1225 0.4375 2.0625 C-0.8825 1.7325 -2.2025 1.4025 -3.5625 1.0625 C-2.5625 0.0625 -2.5625 0.0625 0 0 Z " fill="#3E3FBF" transform="translate(144.5625,84.9375)"/>
<path d="M0 0 C-0.33 3.3 -0.66 6.6 -1 10 C-2.32 9.34 -3.64 8.68 -5 8 C-5.1875 5.125 -5.1875 5.125 -5 2 C-2 0 -2 0 0 0 Z M-3 3 C-3 3.99 -3 4.98 -3 6 C-2.34 6 -1.68 6 -1 6 C-1.33 5.01 -1.66 4.02 -2 3 C-2.33 3 -2.66 3 -3 3 Z " fill="#4C65A1" transform="translate(235,45)"/>
<path d="M0 0 C0.66 0.33 1.32 0.66 2 1 C2 4 2 4 -0.375 6.6875 C-3 9 -3 9 -5 9 C-5.3125 6.75 -5.3125 6.75 -5 4 C-2.5 1.6875 -2.5 1.6875 0 0 Z " fill="#65518F" transform="translate(202,49)"/>
<path d="M0 0 C6.625 0.75 6.625 0.75 10 3 C9.67 3.66 9.34 4.32 9 5 C6.36 4.67 3.72 4.34 1 4 C0.67 2.68 0.34 1.36 0 0 Z " fill="#6F3E88" transform="translate(206,25)"/>
<path d="M0 0 C0 1.98 0 3.96 0 6 C-1.65 6 -3.3 6 -5 6 C-5.33 4.68 -5.66 3.36 -6 2 C-1.125 0 -1.125 0 0 0 Z " fill="#585AD2" transform="translate(58,134)"/>
<path d="M0 0 C0 0.66 0 1.32 0 2 C0.66 2.33 1.32 2.66 2 3 C1.360625 3.20625 0.72125 3.4125 0.0625 3.625 C-2.34925077 4.89538209 -2.34925077 4.89538209 -2.75 8.125 C-2.8325 9.07375 -2.915 10.0225 -3 11 C-3.33 11 -3.66 11 -4 11 C-4.38133299 9.0085944 -4.71325582 7.00720923 -5 5 C-4.67 4.67 -4.34 4.34 -4 4 C-5.32 3.67 -6.64 3.34 -8 3 C-7.67 2.34 -7.34 1.68 -7 1 C-4.61370553 0.38812962 -2.46459429 0 0 0 Z " fill="#4F80AE" transform="translate(220,84)"/>
<path d="M0 0 C3 3.75 3 3.75 3 6 C-2.625 6.25 -2.625 6.25 -6 4 C-5.67 3.01 -5.34 2.02 -5 1 C-5 1.66 -5 2.32 -5 3 C-3.68 3 -2.36 3 -1 3 C-0.67 2.01 -0.34 1.02 0 0 Z " fill="#803893" transform="translate(181,48)"/>
<path d="M0 0 C3.66464055 0.4952217 5.70832354 1.0208206 8 4 C8.33 4.99 8.66 5.98 9 7 C5.59687262 5.94124926 2.98646769 4.99097846 0 3 C0 2.01 0 1.02 0 0 Z " fill="#5D589D" transform="translate(219,38)"/>
<path d="M0 0 C2.9375 0.375 2.9375 0.375 6 1 C7.35439668 3.70879335 7.06501451 6.00933268 7 9 C5.02 9.99 5.02 9.99 3 11 C3 8 3 8 5 5 C4.54625 4.54625 4.0925 4.0925 3.625 3.625 C2.41666667 2.41666667 1.20833333 1.20833333 0 0 Z " fill="#0F1F51" transform="translate(77,12)"/>
<path d="M0 0 C1.65 0.33 3.3 0.66 5 1 C5 2.32 5 3.64 5 5 C4.01 5.33 3.02 5.66 2 6 C1.01 5.34 0.02 4.68 -1 4 C-0.67 2.68 -0.34 1.36 0 0 Z " fill="#5B61D0" transform="translate(239,112)"/>
<path d="M0 0 C0.99 0 1.98 0 3 0 C3.33 0.99 3.66 1.98 4 3 C-2.4 7.06153846 -2.4 7.06153846 -5.4375 6.75 C-5.953125 6.5025 -6.46875 6.255 -7 6 C-2.25 3 -2.25 3 0 3 C0 2.01 0 1.02 0 0 Z " fill="#5C66C9" transform="translate(191,104)"/>
<path d="M0 0 C0.763125 0.20625 1.52625 0.4125 2.3125 0.625 C2.3125 1.945 2.3125 3.265 2.3125 4.625 C0.3325 4.625 -1.6475 4.625 -3.6875 4.625 C-3.6875 3.965 -3.6875 3.305 -3.6875 2.625 C-4.3475 2.295 -5.0075 1.965 -5.6875 1.625 C-2.6875 -0.375 -2.6875 -0.375 0 0 Z " fill="#5B5593" transform="translate(209.6875,53.375)"/>
<path d="M0 0 C2.97 0 5.94 0 9 0 C9 1.98 9 3.96 9 6 C8.67 5.01 8.34 4.02 8 3 C5.36 3 2.72 3 0 3 C0 2.01 0 1.02 0 0 Z " fill="#131B37" transform="translate(54,9)"/>
<path d="M0 0 C2.31 0 4.62 0 7 0 C6.6875 1.9375 6.6875 1.9375 6 4 C5.01 4.33 4.02 4.66 3 5 C2.34 4.67 1.68 4.34 1 4 C0.375 1.9375 0.375 1.9375 0 0 Z " fill="#6764D9" transform="translate(114,131)"/>
<path d="M0 0 C2.0625 2.3125 2.0625 2.3125 4 5 C3.67 5.99 3.34 6.98 3 8 C2.34 8 1.68 8 1 8 C0.67 8.99 0.34 9.98 0 11 C-0.33 11 -0.66 11 -1 11 C-0.67 7.37 -0.34 3.74 0 0 Z " fill="#2C3187" transform="translate(160,48)"/>
<path d="M0 0 C2.31 0.66 4.62 1.32 7 2 C7 2.99 7 3.98 7 5 C6.01 5 5.02 5 4 5 C4 5.66 4 6.32 4 7 C3.34 7 2.68 7 2 7 C1.855625 6.401875 1.71125 5.80375 1.5625 5.1875 C1.1127561 3.43849596 0.57107659 1.71322977 0 0 Z " fill="#5078AE" transform="translate(84,20)"/>
<path d="M0 0 C3 1.8125 3 1.8125 6 4 C6 4.99 6 5.98 6 7 C4.35 7.33 2.7 7.66 1 8 C0.26919734 6.02253397 -0.39421747 4.01927511 -1 2 C-0.67 1.34 -0.34 0.68 0 0 Z " fill="#3C5D90" transform="translate(67,10)"/>
<path d="M0 0 C-2.49505962 2.49505962 -3.67328888 2.35948376 -7.125 2.625 C-8.03507812 2.69976563 -8.94515625 2.77453125 -9.8828125 2.8515625 C-10.93082031 2.92503906 -10.93082031 2.92503906 -12 3 C-7.82939604 -1.27663626 -5.7021444 -2.8510722 0 0 Z " fill="#385D8B" transform="translate(87,29)"/>
<path d="M0 0 C0.53625 0.474375 1.0725 0.94875 1.625 1.4375 C4.42842836 3.28186076 6.69620258 3.62456847 10 4 C7.06872538 5.95418308 5.44165321 6.64700993 2 7 C0 5 0 5 -0.125 2.375 C-0.08375 1.59125 -0.0425 0.8075 0 0 Z " fill="#2C5384" transform="translate(70,7)"/>
<path d="M0 0 C0.66 0.66 1.32 1.32 2 2 C0.68 2.99 -0.64 3.98 -2 5 C-1.67 7.31 -1.34 9.62 -1 12 C-2.65 10.35 -4.3 8.7 -6 7 C-4.02 4.69 -2.04 2.38 0 0 Z " fill="#3C3DAF" transform="translate(93,92)"/>
<path d="M0 0 C0.66 0 1.32 0 2 0 C2 1.65 2 3.3 2 5 C-0.64 5 -3.28 5 -6 5 C-5.34 3.68 -4.68 2.36 -4 1 C-2.68 1.66 -1.36 2.32 0 3 C0 2.01 0 1.02 0 0 Z " fill="#315B94" transform="translate(175,14)"/>
<path d="M0 0 C-0.33 0.99 -0.66 1.98 -1 3 C-4.5625 4.1875 -4.5625 4.1875 -8 5 C-7.625 3.0625 -7.625 3.0625 -7 1 C-4.53721199 -0.231394 -2.7204945 -0.07159196 0 0 Z " fill="#5380AC" transform="translate(162,6)"/>
<path d="M0 0 C1.65 0 3.3 0 5 0 C5 0.66 5 1.32 5 2 C4.34 2 3.68 2 3 2 C2.67 3.98 2.34 5.96 2 8 C1.01 7.67 0.02 7.34 -1 7 C-0.34 6.67 0.32 6.34 1 6 C0.01 4.68 -0.98 3.36 -2 2 C-1.34 2 -0.68 2 0 2 C0 1.34 0 0.68 0 0 Z " fill="#4176B1" transform="translate(206,89)"/>
<path d="M0 0 C2.375 -0.1875 2.375 -0.1875 5 0 C7 3 7 3 7 6 C3.63279613 4.60667426 2.0140476 3.0210714 0 0 Z " fill="#545C98" transform="translate(193,73)"/>
<path d="M0 0 C0.66 0.33 1.32 0.66 2 1 C1.34 1.66 0.68 2.32 0 3 C0.30791692 4.671549 0.64386903 6.33805547 1 8 C0.5625 10.3125 0.5625 10.3125 0 12 C-0.66 12 -1.32 12 -2 12 C-2 8.37 -2 4.74 -2 1 C-1.34 0.67 -0.68 0.34 0 0 Z " fill="#533883" transform="translate(176,70)"/>
<path d="M0 0 C3.91402949 1.26941497 5.79072873 2.51167694 8 6 C6.68 5.67 5.36 5.34 4 5 C4 4.34 4 3.68 4 3 C3.38125 3.20625 2.7625 3.4125 2.125 3.625 C1.42375 3.74875 0.7225 3.8725 0 4 C-0.66 3.34 -1.32 2.68 -2 2 C-1.34 2 -0.68 2 0 2 C0 1.34 0 0.68 0 0 Z " fill="#595A92" transform="translate(216,45)"/>
<path d="M0 0 C0.33 0.66 0.66 1.32 1 2 C0.0625 4.625 0.0625 4.625 -1 7 C-2.32 7 -3.64 7 -5 7 C-4.67 5.68 -4.34 4.36 -4 3 C-3.34 3 -2.68 3 -2 3 C-2 2.34 -2 1.68 -2 1 C-1.34 0.67 -0.68 0.34 0 0 Z " fill="#1C265C" transform="translate(167,15)"/>
<path d="M0 0 C1.98 0.495 1.98 0.495 4 1 C4.33 2.32 4.66 3.64 5 5 C4.01 4.34 3.02 3.68 2 3 C1.67 4.32 1.34 5.64 1 7 C0.34 7 -0.32 7 -1 7 C-0.67 4.69 -0.34 2.38 0 0 Z " fill="#4F69A4" transform="translate(239,42)"/>
<path d="M0 0 C2.475 0.99 2.475 0.99 5 2 C3.35 3.65 1.7 5.3 0 7 C-0.99 5.68 -1.98 4.36 -3 3 C-2.01 2.01 -1.02 1.02 0 0 Z " fill="#764DA3" transform="translate(208,35)"/>
<path d="M0 0 C0.99 0 1.98 0 3 0 C3.268125 0.804375 3.53625 1.60875 3.8125 2.4375 C4.204375 3.283125 4.59625 4.12875 5 5 C5.99 5.33 6.98 5.66 8 6 C7.01 6.66 6.02 7.32 5 8 C0 2.25 0 2.25 0 0 Z " fill="#406FAA" transform="translate(164,9)"/>
<path d="M0 0 C2.64 0 5.28 0 8 0 C8.33 0.99 8.66 1.98 9 3 C5.625 3.1875 5.625 3.1875 2 3 C1.34 2.01 0.68 1.02 0 0 Z " fill="#4F65A0" transform="translate(203,73)"/>
<path d="M0 0 C5.75 0.75 5.75 0.75 8 3 C4.37 3.33 0.74 3.66 -3 4 C-2.01 2.68 -1.02 1.36 0 0 Z " fill="#6956A3" transform="translate(205,48)"/>
<path d="M0 0 C2.375 -0.1875 2.375 -0.1875 5 0 C5.66 0.99 6.32 1.98 7 3 C5.02 3.66 3.04 4.32 1 5 C0.67 3.35 0.34 1.7 0 0 Z " fill="#3B5F99" transform="translate(77,23)"/>
<path d="M0 0 C0.33 0 0.66 0 1 0 C1 2.31 1 4.62 1 7 C0.34 7 -0.32 7 -1 7 C-1.33 7.66 -1.66 8.32 -2 9 C-3.32 8.34 -4.64 7.68 -6 7 C-4.68 7 -3.36 7 -2 7 C-1.34 4.69 -0.68 2.38 0 0 Z " fill="#1F3C76" transform="translate(168,15)"/>
<path d="M0 0 C0.99 0.66 1.98 1.32 3 2 C2.01 2.33 1.02 2.66 0 3 C-0.33 3.99 -0.66 4.98 -1 6 C-2.32 5.67 -3.64 5.34 -5 5 C-5 4.34 -5 3.68 -5 3 C-2.5 1.375 -2.5 1.375 0 0 Z " fill="#517BC1" transform="translate(207,85)"/>
<path d="M0 0 C1.65 0 3.3 0 5 0 C5 0.99 5 1.98 5 3 C3.02 3.33 1.04 3.66 -1 4 C-0.67 2.68 -0.34 1.36 0 0 Z " fill="#833A94" transform="translate(185,43)"/>
<path d="M0 0 C1 3 1 3 0.0625 5.1875 C-0.4634375 6.0846875 -0.4634375 6.0846875 -1 7 C-1.99 6.67 -2.98 6.34 -4 6 C-4 5.01 -4 4.02 -4 3 C-2 1.3125 -2 1.3125 0 0 Z " fill="#7C3896" transform="translate(206,26)"/>
<path d="M0 0 C0.8971875 0.309375 0.8971875 0.309375 1.8125 0.625 C1.4825 1.285 1.1525 1.945 0.8125 2.625 C-0.5075 2.625 -1.8275 2.625 -3.1875 2.625 C-3.5175 3.615 -3.8475 4.605 -4.1875 5.625 C-5.1775 5.625 -6.1675 5.625 -7.1875 5.625 C-5.69046729 2.17030914 -4.27938051 -0.73360809 0 0 Z " fill="#69459E" transform="translate(182.1875,69.375)"/>
<path d="M0 0 C0.33 0.66 0.66 1.32 1 2 C1.66 2 2.32 2 3 2 C3 3.98 3 5.96 3 8 C2.34 7.01 1.68 6.02 1 5 C0.01 5.495 0.01 5.495 -1 6 C-1.042721 4.33388095 -1.04063832 2.66617115 -1 1 C-0.67 0.67 -0.34 0.34 0 0 Z " fill="#4967AA" transform="translate(225,57)"/>
<path d="M0 0 C-2.31 1.32 -4.62 2.64 -7 4 C-7.66 3.34 -8.32 2.68 -9 2 C-3.375 -1.125 -3.375 -1.125 0 0 Z " fill="#6768C7" transform="translate(173,119)"/>
</svg>
